<?xml version="1.0" encoding="UTF-8"?>
<svg id="Layer_1" data-name="Layer 1" xmlns="http://www.w3.org/2000/svg" viewBox="0 0 183.44 168.78">
  <defs>
    <style>
      .cls-1 {
        letter-spacing: .02em;
      }

      .cls-2 {
        stroke-width: .75px;
      }

      .cls-2, .cls-3 {
        fill: none;
        stroke: #000;
        stroke-linecap: round;
        stroke-linejoin: round;
      }

      .cls-4, .cls-5 {
        fill: #fff;
      }

      .cls-5, .cls-6 {
        fill-rule: evenodd;
      }

      .cls-7 {
        letter-spacing: 0em;
      }

      .cls-8 {
        letter-spacing: .01em;
      }

      .cls-9 {
        letter-spacing: .03em;
      }

      .cls-10 {
        letter-spacing: 0em;
      }

      .cls-11 {
        letter-spacing: 0em;
      }

      .cls-12 {
        letter-spacing: .02em;
      }

      .cls-13 {
        letter-spacing: -.06em;
      }

      .cls-14 {
        letter-spacing: 0em;
      }

      .cls-15 {
        letter-spacing: .02em;
      }

      .cls-16 {
        letter-spacing: .01em;
      }

      .cls-17 {
        letter-spacing: .02em;
      }

      .cls-18 {
        font-family: ArialMT, Arial;
        font-size: 9px;
      }

      .cls-19 {
        letter-spacing: 0em;
      }

      .cls-20 {
        font-family: Arial-BoldMT, Arial;
      }

      .cls-20, .cls-21 {
        font-size: 9.78px;
        font-weight: 700;
      }

      .cls-22 {
        letter-spacing: .02em;
      }

      .cls-23 {
        letter-spacing: 0em;
      }

      .cls-24 {
        letter-spacing: .03em;
      }

      .cls-3 {
        stroke-width: .06px;
      }

      .cls-25 {
        letter-spacing: .02em;
      }

      .cls-26 {
        letter-spacing: .02em;
      }

      .cls-21 {
        font-family: CourierNewPS-BoldMT, 'Courier New';
      }
    </style>
  </defs>
  <polygon class="cls-2" points="142.1 161.68 155.6 161.68 148.88 168.4 142.1 161.68"/>
  <rect x="148.88" y="154.9" width=".06" height=".06"/>
  <line class="cls-2" x1="148.88" y1="161.68" x2="148.88" y2="154.9"/>
  <text class="cls-20" transform="translate(28.88 107.44)"><tspan class="cls-15" x="0" y="0">V</tspan><tspan x="6.72" y="0">1</tspan></text>
  <text class="cls-20" transform="translate(28.87 120.94)"><tspan class="cls-15" x="0" y="0">5V</tspan><tspan class="cls-16" x="12.35" y="0">p</tspan><tspan class="cls-14" x="18.47" y="0">k</tspan><tspan class="cls-11" x="23.92" y="0"> </tspan></text>
  <text class="cls-20" transform="translate(28.88 132.16)"><tspan class="cls-15" x="0" y="0">1k</tspan><tspan class="cls-8" x="11.27" y="0">H</tspan><tspan class="cls-10" x="18.46" y="0">z</tspan><tspan class="cls-11" x="23.32" y="0"> </tspan></text>
  <text class="cls-20" transform="translate(28.88 143.38)"><tspan class="cls-15" x="0" y="0">0</tspan><tspan class="cls-23" x="5.63" y="0">°</tspan><tspan x="9.54" y="0"> </tspan></text>
  <line class="cls-2" x1="13.88" y1="116.68" x2="13.88" y2="121.18"/>
  <line class="cls-2" x1="11.6" y1="118.9" x2="16.1" y2="118.9"/>
  <line class="cls-2" x1="11.6" y1="136.9" x2="16.1" y2="136.9"/>
  <path class="cls-2" d="M27.32,127.84c0-7.44-6.06-13.44-13.5-13.44S.38,120.4.38,127.84s6,13.5,13.44,13.5,13.5-6.06,13.5-13.5Z"/>
  <path class="cls-2" d="M13.82,127.9c0-1.26-1.02-2.22-2.22-2.22-1.26,0-2.22.96-2.22,2.22"/>
  <path class="cls-2" d="M13.88,127.9c0,1.2.96,2.22,2.22,2.22s2.22-1.02,2.22-2.22"/>
  <rect x="13.88" y="107.68" width=".06" height=".06"/>
  <line class="cls-2" x1="13.88" y1="114.4" x2="13.88" y2="107.68"/>
  <rect x="13.88" y="148.18" width=".06" height=".06"/>
  <line class="cls-2" x1="13.88" y1="141.4" x2="13.88" y2="148.18"/>
  <text class="cls-20" transform="translate(71.17 85.72)"><tspan class="cls-24" x="0" y="0">R</tspan><tspan class="cls-7" x="7.32" y="0">1</tspan></text>
  <polyline class="cls-2" points="67.88 94.18 70.09 90.4 73.09 97.18 76.88 90.4 79.88 97.18 83.59 90.4 86.59 97.18 88.09 94.18"/>
  <text class="cls-20" transform="translate(67.99 107.44)"><tspan class="cls-15" x="0" y="0">1</tspan><tspan x="5.63" y="0">k</tspan></text>
  <text class="cls-20" transform="translate(79.27 107.44)"><tspan x="0" y="0">Ω</tspan></text>
  <rect x="94.88" y="94.18" width=".06" height=".06"/>
  <line class="cls-2" x1="88.1" y1="94.18" x2="94.88" y2="94.18"/>
  <rect x="61.1" y="94.18" width=".06" height=".06"/>
  <line class="cls-2" x1="67.88" y1="94.18" x2="61.09" y2="94.18"/>
  <text class="cls-20" transform="translate(153.38 114.94)"><tspan class="cls-25" x="0" y="0">L</tspan><tspan class="cls-7" x="6.18" y="0">1</tspan></text>
  <text class="cls-20" transform="translate(153.38 126.94)"><tspan class="cls-22" x="0" y="0">3</tspan><tspan class="cls-1" x="5.62" y="0">.</tspan><tspan class="cls-22" x="8.52" y="0">9m</tspan><tspan x="23.01" y="0">H</tspan></text>
  <path class="cls-2" d="M148.82,119.62c1.62,0,3-1.02,3-2.22,0-1.26-1.38-2.22-3-2.22"/>
  <path class="cls-2" d="M148.82,124.12c1.62,0,3-1.02,3-2.22,0-1.26-1.38-2.22-3-2.22"/>
  <path class="cls-2" d="M148.82,128.62c1.62,0,3-1.02,3-2.22,0-1.26-1.38-2.22-3-2.22"/>
  <path class="cls-2" d="M148.82,133.12c1.62,0,3-1.02,3-2.22,0-1.26-1.38-2.22-3-2.22"/>
  <line class="cls-2" x1="148.88" y1="114.4" x2="148.88" y2="115.18"/>
  <line class="cls-2" x1="148.88" y1="134.68" x2="148.88" y2="133.18"/>
  <rect x="148.88" y="107.68" width=".06" height=".06"/>
  <line class="cls-2" x1="148.88" y1="114.4" x2="148.88" y2="107.68"/>
  <rect x="148.88" y="141.4" width=".06" height=".06"/>
  <line class="cls-2" x1="148.88" y1="134.68" x2="148.88" y2="141.4"/>
  <rect class="cls-4" x="40.93" y="13.24" width="60.6" height="40.38"/>
  <text class="cls-21" transform="translate(58.76 7.78)"><tspan class="cls-1" x="0" y="0">X</tspan><tspan class="cls-8" x="6.05" y="0">B</tspan><tspan class="cls-1" x="12.05" y="0">P</tspan><tspan x="18.11" y="0">1</tspan></text>
  <path class="cls-3" d="M101.54,13.18,101.54,53.62V13.18h-60.66v40.44h60.66Z"/>
  <rect class="cls-4" x="45.43" y="15.46" width="40.38" height="15.66"/>
  <path class="cls-3" d="M67.1,16.18v14.22M67.33,22.36c-.78-1.56-2.34-2.46-4.02-2.46M67.1,22.18l12.78,8.22M47.6,19.9h15.78M85.82,31.12v-15.72h-40.44v15.72h40.44Z"/>
  <path class="cls-5" d="M49.82,49.12c0-1.26-1.02-2.22-2.22-2.22-1.26,0-2.22.96-2.22,2.22s.96,2.22,2.22,2.22,2.22-1.02,2.22-2.22Z"/>
  <path class="cls-3" d="M49.82,49.12c0-1.26-1.02-2.22-2.22-2.22-1.26,0-2.22.96-2.22,2.22s.96,2.22,2.22,2.22,2.22-1.02,2.22-2.22Z"/>
  <line class="cls-2" x1="47.6" y1="49.18" x2="47.6" y2="53.68"/>
  <line class="cls-3" x1="45.38" y1="43.9" x2="49.88" y2="43.9"/>
  <path class="cls-5" d="M63.32,49.12c0-1.26-1.02-2.22-2.22-2.22-1.26,0-2.22.96-2.22,2.22s.96,2.22,2.22,2.22,2.22-1.02,2.22-2.22Z"/>
  <path class="cls-3" d="M63.32,49.12c0-1.26-1.02-2.22-2.22-2.22-1.26,0-2.22.96-2.22,2.22s.96,2.22,2.22,2.22,2.22-1.02,2.22-2.22Z"/>
  <line class="cls-2" x1="61.1" y1="49.18" x2="61.1" y2="53.68"/>
  <line class="cls-3" x1="58.88" y1="43.9" x2="63.38" y2="43.9"/>
  <path class="cls-5" d="M83.54,49.12c0-1.26-1.02-2.22-2.22-2.22-1.26,0-2.22.96-2.22,2.22s.96,2.22,2.22,2.22,2.22-1.02,2.22-2.22Z"/>
  <path class="cls-3" d="M83.54,49.12c0-1.26-1.02-2.22-2.22-2.22-1.26,0-2.22.96-2.22,2.22s.96,2.22,2.22,2.22,2.22-1.02,2.22-2.22Z"/>
  <line class="cls-2" x1="81.38" y1="49.18" x2="81.38" y2="53.68"/>
  <line class="cls-3" x1="79.1" y1="43.9" x2="83.6" y2="43.9"/>
  <path class="cls-5" d="M97.04,49.12c0-1.26-1.02-2.22-2.22-2.22-1.26,0-2.22.96-2.22,2.22s.96,2.22,2.22,2.22,2.22-1.02,2.22-2.22Z"/>
  <path class="cls-3" d="M97.04,49.12c0-1.26-1.02-2.22-2.22-2.22-1.26,0-2.22.96-2.22,2.22s.96,2.22,2.22,2.22,2.22-1.02,2.22-2.22Z"/>
  <line class="cls-2" x1="94.88" y1="49.18" x2="94.88" y2="53.68"/>
  <line class="cls-3" x1="92.6" y1="43.9" x2="97.1" y2="43.9"/>
  <line class="cls-3" x1="47.6" y1="41.68" x2="47.6" y2="46.18"/>
  <line class="cls-3" x1="81.38" y1="41.68" x2="81.38" y2="46.18"/>
  <text class="cls-18" transform="translate(49.87 40.06)"><tspan class="cls-17" x="0" y="0">I</tspan><tspan x="2.7" y="0">N</tspan></text>
  <rect x="47.6" y="60.4" width=".06" height=".06"/>
  <line class="cls-2" x1="47.6" y1="53.68" x2="47.6" y2="60.4"/>
  <text class="cls-18" transform="translate(79.09 40.06)"><tspan class="cls-9" x="0" y="0">O</tspan><tspan class="cls-26" x="7.25" y="0">U</tspan><tspan x="13.9" y="0">T</tspan></text>
  <rect x="61.1" y="60.4" width=".06" height=".06"/>
  <line class="cls-2" x1="61.1" y1="53.68" x2="61.1" y2="60.4"/>
  <rect x="81.38" y="60.4" width=".06" height=".06"/>
  <line class="cls-2" x1="81.38" y1="53.68" x2="81.38" y2="60.4"/>
  <rect x="94.88" y="60.4" width=".06" height=".06"/>
  <line class="cls-2" x1="94.88" y1="53.68" x2="94.88" y2="60.4"/>
  <path class="cls-6" d="M42.32,94.12c0-.78-.66-1.44-1.5-1.44s-1.44.66-1.44,1.44c0,.84.6,1.5,1.44,1.5s1.5-.66,1.5-1.5Z"/>
  <path class="cls-2" d="M42.32,94.12c0-.78-.66-1.44-1.5-1.44s-1.44.66-1.44,1.44c0,.84.6,1.5,1.44,1.5s1.5-.66,1.5-1.5Z"/>
  <polyline class="cls-2" points="13.88 107.68 13.88 94.18 40.88 94.18 61.1 94.18"/>
  <polyline class="cls-2" points="47.6 60.4 47.6 94.18 40.88 94.18"/>
  <text class="cls-20" transform="translate(28.09 84.22)"><tspan class="cls-19" x="0" y="0">V</tspan><tspan class="cls-12" x="6.53" y="0">i</tspan><tspan x="9.41" y="0">n</tspan></text>
  <path class="cls-6" d="M116.54,94.12c0-.78-.66-1.44-1.5-1.44s-1.44.66-1.44,1.44c0,.84.6,1.5,1.44,1.5s1.5-.66,1.5-1.5Z"/>
  <path class="cls-2" d="M116.54,94.12c0-.78-.66-1.44-1.5-1.44s-1.44.66-1.44,1.44c0,.84.6,1.5,1.44,1.5s1.5-.66,1.5-1.5Z"/>
  <polyline class="cls-2" points="94.88 94.18 115.09 94.18 148.88 94.18 148.88 107.68"/>
  <polyline class="cls-2" points="81.38 60.4 88.09 80.68 101.59 80.68 115.1 94.18"/>
  <line class="cls-2" x1="148.88" y1="141.4" x2="148.88" y2="154.9"/>
  <text class="cls-20" transform="translate(105.37 84.22)"><tspan class="cls-13" x="0" y="0">V</tspan><tspan class="cls-16" x="5.95" y="0">ou</tspan><tspan x="18.19" y="0">t</tspan></text>
  <polygon class="cls-2" points="7.1 161.68 20.6 161.68 13.88 168.4 7.1 161.68"/>
  <rect x="13.88" y="154.9" width=".06" height=".06"/>
  <line class="cls-2" x1="13.88" y1="161.68" x2="13.88" y2="154.9"/>
  <line class="cls-2" x1="13.88" y1="148.18" x2="13.88" y2="154.9"/>
  <polygon class="cls-2" points="54.38 67.18 67.88 67.18 61.09 73.9 54.38 67.18"/>
  <rect x="61.1" y="60.4" width=".06" height=".06"/>
  <line class="cls-2" x1="61.1" y1="67.18" x2="61.1" y2="60.4"/>
  <polygon class="cls-2" points="88.1 67.18 101.6 67.18 94.88 73.9 88.1 67.18"/>
  <rect x="94.88" y="60.4" width=".06" height=".06"/>
  <line class="cls-2" x1="94.88" y1="67.18" x2="94.88" y2="60.4"/>
</svg>