<?xml version="1.0" encoding="UTF-8"?>
<svg id="Layer_1" data-name="Layer 1" xmlns="http://www.w3.org/2000/svg" viewBox="0 0 197.07 168.84">
  <defs>
    <style>
      .cls-1 {
        letter-spacing: .02em;
      }

      .cls-2 {
        stroke-width: .75px;
      }

      .cls-2, .cls-3, .cls-4 {
        fill: none;
        stroke: #000;
        stroke-linecap: round;
        stroke-linejoin: round;
      }

      .cls-5, .cls-6 {
        fill: #fff;
      }

      .cls-7 {
        letter-spacing: .01em;
      }

      .cls-6, .cls-8 {
        fill-rule: evenodd;
      }

      .cls-9 {
        letter-spacing: 0em;
      }

      .cls-10 {
        letter-spacing: .01em;
      }

      .cls-11 {
        letter-spacing: .03em;
      }

      .cls-12 {
        letter-spacing: 0em;
      }

      .cls-13 {
        letter-spacing: .02em;
      }

      .cls-14 {
        letter-spacing: 0em;
      }

      .cls-15 {
        letter-spacing: .02em;
      }

      .cls-16 {
        letter-spacing: 0em;
      }

      .cls-17 {
        letter-spacing: -.06em;
      }

      .cls-18 {
        letter-spacing: 0em;
      }

      .cls-19 {
        letter-spacing: .02em;
      }

      .cls-20 {
        letter-spacing: .01em;
      }

      .cls-21 {
        letter-spacing: .02em;
      }

      .cls-22 {
        font-family: ArialMT, Arial;
        font-size: 9px;
      }

      .cls-3 {
        stroke-width: 1.5px;
      }

      .cls-23 {
        letter-spacing: .01em;
      }

      .cls-24 {
        letter-spacing: 0em;
      }

      .cls-25 {
        font-family: Arial-BoldMT, Arial;
      }

      .cls-25, .cls-26 {
        font-size: 9.78px;
        font-weight: 700;
      }

      .cls-27 {
        letter-spacing: 0em;
      }

      .cls-28 {
        letter-spacing: .03em;
      }

      .cls-4 {
        stroke-width: .06px;
      }

      .cls-29 {
        letter-spacing: .02em;
      }

      .cls-26 {
        font-family: CourierNewPS-BoldMT, 'Courier New';
      }
    </style>
  </defs>
  <text class="cls-25" transform="translate(171.38 121.72)"><tspan class="cls-13" x="0" y="0">C</tspan><tspan class="cls-9" x="7.26" y="0">1</tspan></text>
  <line class="cls-3" x1="155.6" y1="129.46" x2="169.1" y2="129.46"/>
  <line class="cls-3" x1="155.6" y1="133.18" x2="169.1" y2="133.18"/>
  <line class="cls-2" x1="162.38" y1="133.96" x2="162.38" y2="141.46"/>
  <text class="cls-25" transform="translate(171.38 133.72)"><tspan class="cls-19" x="0" y="0">0</tspan><tspan class="cls-16" x="5.63" y="0">.</tspan><tspan class="cls-7" x="8.39" y="0">1</tspan><tspan class="cls-23" x="13.97" y="0">µ</tspan><tspan x="19.72" y="0">F</tspan></text>
  <line class="cls-2" x1="162.38" y1="121.18" x2="162.38" y2="128.68"/>
  <rect x="162.38" y="148.18" width=".06" height=".06"/>
  <line class="cls-2" x1="162.38" y1="141.46" x2="162.38" y2="148.18"/>
  <rect x="162.38" y="114.46" width=".06" height=".06"/>
  <line class="cls-2" x1="162.38" y1="121.18" x2="162.38" y2="114.46"/>
  <text class="cls-25" transform="translate(28.88 114.22)"><tspan class="cls-19" x="0" y="0">V</tspan><tspan x="6.72" y="0">1</tspan></text>
  <text class="cls-25" transform="translate(28.87 127.72)"><tspan class="cls-19" x="0" y="0">5V</tspan><tspan class="cls-20" x="12.35" y="0">p</tspan><tspan class="cls-18" x="18.47" y="0">k</tspan><tspan class="cls-14" x="23.92" y="0"> </tspan></text>
  <text class="cls-25" transform="translate(28.88 138.94)"><tspan class="cls-19" x="0" y="0">1k</tspan><tspan class="cls-10" x="11.27" y="0">H</tspan><tspan class="cls-12" x="18.46" y="0">z</tspan><tspan class="cls-14" x="23.32" y="0"> </tspan></text>
  <text class="cls-25" transform="translate(28.88 150.16)"><tspan class="cls-19" x="0" y="0">0</tspan><tspan class="cls-27" x="5.63" y="0">°</tspan><tspan x="9.54" y="0"> </tspan></text>
  <line class="cls-2" x1="13.88" y1="123.46" x2="13.88" y2="127.96"/>
  <line class="cls-2" x1="11.6" y1="125.68" x2="16.1" y2="125.68"/>
  <line class="cls-2" x1="11.6" y1="143.68" x2="16.1" y2="143.68"/>
  <path class="cls-2" d="M27.32,134.62c0-7.44-6.06-13.44-13.5-13.44S.38,127.18.38,134.62s6,13.5,13.44,13.5,13.5-6.06,13.5-13.5Z"/>
  <path class="cls-2" d="M13.82,134.68c0-1.26-1.02-2.22-2.22-2.22-1.26,0-2.22.96-2.22,2.22"/>
  <path class="cls-2" d="M13.88,134.68c0,1.2.96,2.22,2.22,2.22s2.22-1.02,2.22-2.22"/>
  <rect x="13.88" y="114.46" width=".06" height=".06"/>
  <line class="cls-2" x1="13.88" y1="121.18" x2="13.88" y2="114.46"/>
  <rect x="13.88" y="154.96" width=".06" height=".06"/>
  <line class="cls-2" x1="13.88" y1="148.18" x2="13.88" y2="154.96"/>
  <text class="cls-25" transform="translate(84.67 92.5)"><tspan class="cls-28" x="0" y="0">R</tspan><tspan class="cls-9" x="7.32" y="0">1</tspan></text>
  <polyline class="cls-2" points="81.38 100.96 83.59 97.18 86.59 103.96 90.38 97.18 93.38 103.96 97.09 97.18 100.09 103.96 101.59 100.96"/>
  <text class="cls-25" transform="translate(81.49 114.22)"><tspan class="cls-19" x="0" y="0">1</tspan><tspan x="5.63" y="0">k</tspan></text>
  <text class="cls-25" transform="translate(92.77 114.22)"><tspan x="0" y="0">Ω</tspan></text>
  <rect x="108.38" y="100.96" width=".06" height=".06"/>
  <line class="cls-2" x1="101.6" y1="100.96" x2="108.38" y2="100.96"/>
  <rect x="74.6" y="100.96" width=".06" height=".06"/>
  <line class="cls-2" x1="81.38" y1="100.96" x2="74.59" y2="100.96"/>
  <polygon class="cls-2" points="7.1 161.68 20.6 161.68 13.88 168.46 7.1 161.68"/>
  <rect x="13.88" y="154.96" width=".06" height=".06"/>
  <line class="cls-2" x1="13.88" y1="161.68" x2="13.88" y2="154.96"/>
  <polygon class="cls-2" points="155.6 161.68 169.1 161.68 162.38 168.46 155.6 161.68"/>
  <rect x="162.38" y="154.96" width=".06" height=".06"/>
  <polyline class="cls-2" points="162.38 161.68 162.38 154.96 162.38 148.18"/>
  <rect class="cls-5" x="67.93" y="13.24" width="60.6" height="40.38"/>
  <text class="cls-26" transform="translate(85.75 7.78)"><tspan class="cls-1" x="0" y="0">X</tspan><tspan class="cls-10" x="6.05" y="0">B</tspan><tspan class="cls-1" x="12.05" y="0">P</tspan><tspan x="18.11" y="0">1</tspan></text>
  <path class="cls-4" d="M128.54,13.18,128.54,53.62V13.18h-60.66v40.44h60.66Z"/>
  <rect class="cls-5" x="72.43" y="15.52" width="40.38" height="15.6"/>
  <path class="cls-4" d="M94.1,16.18v14.28M94.33,22.42c-.78-1.56-2.34-2.46-4.02-2.46M94.1,22.18l12.78,8.28M74.6,19.96h15.78M112.82,31.12v-15.66h-40.44v15.66h40.44Z"/>
  <path class="cls-6" d="M76.82,49.18c0-1.26-1.02-2.22-2.22-2.22-1.26,0-2.22.96-2.22,2.22s.96,2.22,2.22,2.22,2.22-1.02,2.22-2.22Z"/>
  <path class="cls-4" d="M76.82,49.18c0-1.26-1.02-2.22-2.22-2.22-1.26,0-2.22.96-2.22,2.22s.96,2.22,2.22,2.22,2.22-1.02,2.22-2.22Z"/>
  <line class="cls-2" x1="74.6" y1="49.18" x2="74.6" y2="53.68"/>
  <line class="cls-4" x1="72.38" y1="43.96" x2="76.88" y2="43.96"/>
  <path class="cls-6" d="M90.32,49.18c0-1.26-1.02-2.22-2.22-2.22-1.26,0-2.22.96-2.22,2.22s.96,2.22,2.22,2.22,2.22-1.02,2.22-2.22Z"/>
  <path class="cls-4" d="M90.32,49.18c0-1.26-1.02-2.22-2.22-2.22-1.26,0-2.22.96-2.22,2.22s.96,2.22,2.22,2.22,2.22-1.02,2.22-2.22Z"/>
  <line class="cls-2" x1="88.1" y1="49.18" x2="88.1" y2="53.68"/>
  <line class="cls-4" x1="85.88" y1="43.96" x2="90.38" y2="43.96"/>
  <path class="cls-6" d="M110.54,49.18c0-1.26-1.02-2.22-2.22-2.22-1.26,0-2.22.96-2.22,2.22s.96,2.22,2.22,2.22,2.22-1.02,2.22-2.22Z"/>
  <path class="cls-4" d="M110.54,49.18c0-1.26-1.02-2.22-2.22-2.22-1.26,0-2.22.96-2.22,2.22s.96,2.22,2.22,2.22,2.22-1.02,2.22-2.22Z"/>
  <line class="cls-2" x1="108.38" y1="49.18" x2="108.38" y2="53.68"/>
  <line class="cls-4" x1="106.1" y1="43.96" x2="110.6" y2="43.96"/>
  <path class="cls-6" d="M124.04,49.18c0-1.26-1.02-2.22-2.22-2.22-1.26,0-2.22.96-2.22,2.22s.96,2.22,2.22,2.22,2.22-1.02,2.22-2.22Z"/>
  <path class="cls-4" d="M124.04,49.18c0-1.26-1.02-2.22-2.22-2.22-1.26,0-2.22.96-2.22,2.22s.96,2.22,2.22,2.22,2.22-1.02,2.22-2.22Z"/>
  <line class="cls-2" x1="121.88" y1="49.18" x2="121.88" y2="53.68"/>
  <line class="cls-4" x1="119.6" y1="43.96" x2="124.1" y2="43.96"/>
  <line class="cls-4" x1="74.6" y1="41.68" x2="74.6" y2="46.18"/>
  <line class="cls-4" x1="108.38" y1="41.68" x2="108.38" y2="46.18"/>
  <text class="cls-22" transform="translate(76.88 40.06)"><tspan class="cls-21" x="0" y="0">I</tspan><tspan x="2.7" y="0">N</tspan></text>
  <rect x="74.6" y="60.46" width=".06" height=".06"/>
  <text class="cls-22" transform="translate(106.1 40.06)"><tspan class="cls-11" x="0" y="0">O</tspan><tspan class="cls-29" x="7.25" y="0">U</tspan><tspan x="13.9" y="0">T</tspan></text>
  <line class="cls-2" x1="74.6" y1="53.68" x2="74.6" y2="60.46"/>
  <rect x="88.1" y="60.46" width=".06" height=".06"/>
  <line class="cls-2" x1="88.1" y1="53.68" x2="88.1" y2="60.46"/>
  <rect x="108.38" y="60.46" width=".06" height=".06"/>
  <line class="cls-2" x1="108.38" y1="53.68" x2="108.38" y2="60.46"/>
  <rect x="121.88" y="60.46" width=".06" height=".06"/>
  <line class="cls-2" x1="121.88" y1="53.68" x2="121.88" y2="60.46"/>
  <path class="cls-8" d="M55.82,100.9c0-.78-.66-1.44-1.5-1.44s-1.44.66-1.44,1.44c0,.84.6,1.5,1.44,1.5s1.5-.66,1.5-1.5Z"/>
  <path class="cls-2" d="M55.82,100.9c0-.78-.66-1.44-1.5-1.44s-1.44.66-1.44,1.44c0,.84.6,1.5,1.44,1.5s1.5-.66,1.5-1.5Z"/>
  <polyline class="cls-2" points="13.88 114.46 13.88 100.96 54.38 100.96 74.6 100.96"/>
  <polyline class="cls-2" points="74.6 60.46 74.6 94.18 54.38 94.18 54.38 100.96"/>
  <path class="cls-8" d="M130.04,100.9c0-.78-.66-1.44-1.5-1.44s-1.44.66-1.44,1.44c0,.84.6,1.5,1.44,1.5s1.5-.66,1.5-1.5Z"/>
  <path class="cls-2" d="M130.04,100.9c0-.78-.66-1.44-1.5-1.44s-1.44.66-1.44,1.44c0,.84.6,1.5,1.44,1.5s1.5-.66,1.5-1.5Z"/>
  <text class="cls-25" transform="translate(34.87 91)"><tspan class="cls-24" x="0" y="0">V</tspan><tspan class="cls-15" x="6.53" y="0">i</tspan><tspan x="9.41" y="0">n</tspan></text>
  <polyline class="cls-2" points="108.38 100.96 128.59 100.96 162.38 100.96 162.38 114.46"/>
  <polyline class="cls-2" points="108.38 60.46 108.38 94.18 128.59 94.18 128.59 100.96"/>
  <polygon class="cls-2" points="81.38 67.18 94.88 67.18 88.09 73.96 81.38 67.18"/>
  <text class="cls-25" transform="translate(118.87 91)"><tspan class="cls-17" x="0" y="0">V</tspan><tspan class="cls-20" x="5.95" y="0">ou</tspan><tspan x="18.19" y="0">t</tspan></text>
  <rect x="88.1" y="60.46" width=".06" height=".06"/>
  <line class="cls-2" x1="88.1" y1="67.18" x2="88.1" y2="60.46"/>
  <polygon class="cls-2" points="115.1 67.18 128.6 67.18 121.88 73.96 115.1 67.18"/>
  <rect x="121.88" y="60.46" width=".06" height=".06"/>
  <line class="cls-2" x1="121.88" y1="67.18" x2="121.88" y2="60.46"/>
</svg>