<?xml version="1.0" encoding="UTF-8"?>
<svg id="Layer_1" xmlns="http://www.w3.org/2000/svg" version="1.1" xmlns:xlink="http://www.w3.org/1999/xlink" viewBox="0 0 785.1 500.1">
  <!-- Generator: Adobe Illustrator 29.1.0, SVG Export Plug-In . SVG Version: 2.1.0 Build 142)  -->
  <defs>
    <style>
      .st0 {
        clip-path: url(#clippath-76);
      }

      .st1 {
        clip-path: url(#clippath-51);
      }

      .st2 {
        clip-path: url(#clippath-34);
      }

      .st3 {
        clip-path: url(#clippath-107);
      }

      .st4 {
        clip-path: url(#clippath-38);
      }

      .st5 {
        clip-path: url(#clippath-21);
      }

      .st6 {
        clip-path: url(#clippath-6);
      }

      .st7 {
        clip-path: url(#clippath-7);
      }

      .st8 {
        clip-path: url(#clippath-17);
      }

      .st9 {
        clip-path: url(#clippath-80);
      }

      .st10 {
        clip-path: url(#clippath-31);
      }

      .st11 {
        clip-path: url(#clippath-79);
      }

      .st12 {
        clip-path: url(#clippath-75);
      }

      .st13 {
        clip-path: url(#clippath-15);
      }

      .st14 {
        clip-path: url(#clippath-33);
      }

      .st15 {
        clip-path: url(#clippath-61);
      }

      .st16 {
        clip-path: url(#clippath-116);
      }

      .st17 {
        clip-path: url(#clippath-100);
      }

      .st18 {
        clip-path: url(#clippath-18);
      }

      .st19 {
        clip-path: url(#clippath-47);
      }

      .st20 {
        clip-path: url(#clippath-4);
      }

      .st21, .st22, .st23, .st24, .st25 {
        fill: none;
      }

      .st21, .st22, .st24 {
        stroke-width: .8px;
      }

      .st21, .st22, .st24, .st25 {
        stroke-linecap: round;
        stroke-linejoin: round;
      }

      .st21, .st25 {
        stroke: #000;
      }

      .st26 {
        clip-path: url(#clippath-71);
      }

      .st27 {
        clip-path: url(#clippath-22);
      }

      .st28 {
        clip-path: url(#clippath-103);
      }

      .st29 {
        clip-path: url(#clippath-23);
      }

      .st22 {
        stroke: #aaa;
      }

      .st30 {
        font-size: 8px;
      }

      .st30, .st31, .st32, .st33, .st34 {
        isolation: isolate;
      }

      .st30, .st32, .st33, .st34 {
        font-family: MicrosoftSansSerif, 'Microsoft Sans Serif';
      }

      .st35 {
        clip-path: url(#clippath-82);
      }

      .st36 {
        clip-path: url(#clippath-54);
      }

      .st37 {
        clip-path: url(#clippath-66);
      }

      .st38 {
        clip-path: url(#clippath-114);
      }

      .st39 {
        clip-path: url(#clippath-9);
      }

      .st40 {
        clip-path: url(#clippath-102);
      }

      .st41 {
        clip-path: url(#clippath-70);
      }

      .st42 {
        clip-path: url(#clippath-10);
      }

      .st43 {
        clip-path: url(#clippath-42);
      }

      .st44 {
        clip-path: url(#clippath-59);
      }

      .st45 {
        fill: #fff;
      }

      .st46 {
        clip-path: url(#clippath-43);
      }

      .st47 {
        clip-path: url(#clippath-64);
      }

      .st48 {
        clip-path: url(#clippath-101);
      }

      .st49 {
        clip-path: url(#clippath-25);
      }

      .st50 {
        clip-path: url(#clippath-27);
      }

      .st51 {
        clip-path: url(#clippath-109);
      }

      .st52 {
        clip-path: url(#clippath-60);
      }

      .st53 {
        clip-path: url(#clippath-113);
      }

      .st54 {
        clip-path: url(#clippath-93);
      }

      .st55 {
        clip-path: url(#clippath-11);
      }

      .st56 {
        clip-path: url(#clippath-57);
      }

      .st57 {
        clip-path: url(#clippath-88);
      }

      .st58 {
        clip-path: url(#clippath-85);
      }

      .st59 {
        clip-path: url(#clippath-111);
      }

      .st60 {
        clip-path: url(#clippath-105);
      }

      .st61 {
        clip-path: url(#clippath-36);
      }

      .st62 {
        clip-path: url(#clippath-92);
      }

      .st63 {
        clip-path: url(#clippath-35);
      }

      .st64 {
        clip-path: url(#clippath-98);
      }

      .st65 {
        clip-path: url(#clippath-48);
      }

      .st66 {
        clip-path: url(#clippath-104);
      }

      .st67 {
        clip-path: url(#clippath-28);
      }

      .st68 {
        clip-path: url(#clippath-1);
      }

      .st69 {
        clip-path: url(#clippath-56);
      }

      .st70 {
        clip-path: url(#clippath-108);
      }

      .st71 {
        clip-path: url(#clippath-90);
      }

      .st72 {
        clip-path: url(#clippath-45);
      }

      .st73 {
        clip-path: url(#clippath-110);
      }

      .st74 {
        clip-path: url(#clippath-99);
      }

      .st75 {
        clip-path: url(#clippath-89);
      }

      .st76 {
        clip-path: url(#clippath-46);
      }

      .st77 {
        clip-path: url(#clippath-40);
      }

      .st78 {
        clip-path: url(#clippath-96);
      }

      .st79 {
        clip-path: url(#clippath-5);
      }

      .st80 {
        clip-path: url(#clippath-20);
      }

      .st81 {
        clip-path: url(#clippath-95);
      }

      .st82 {
        clip-path: url(#clippath-8);
      }

      .st83 {
        clip-path: url(#clippath-52);
      }

      .st84 {
        clip-path: url(#clippath-41);
      }

      .st85 {
        clip-path: url(#clippath-67);
      }

      .st86 {
        clip-path: url(#clippath-74);
      }

      .st87 {
        clip-path: url(#clippath-3);
      }

      .st88 {
        clip-path: url(#clippath-26);
      }

      .st89 {
        clip-path: url(#clippath-91);
      }

      .st32 {
        font-size: 10px;
      }

      .st90 {
        clip-path: url(#clippath-12);
      }

      .st91 {
        clip-path: url(#clippath-50);
      }

      .st92 {
        clip-path: url(#clippath-14);
      }

      .st33 {
        font-size: 12px;
      }

      .st93 {
        clip-path: url(#clippath-97);
      }

      .st94 {
        clip-path: url(#clippath-30);
      }

      .st95 {
        clip-path: url(#clippath-112);
      }

      .st96 {
        clip-path: url(#clippath-77);
      }

      .st97 {
        clip-path: url(#clippath-19);
      }

      .st98 {
        clip-path: url(#clippath-78);
      }

      .st99 {
        clip-path: url(#clippath-72);
      }

      .st100 {
        clip-path: url(#clippath-84);
      }

      .st101 {
        clip-path: url(#clippath-32);
      }

      .st102 {
        clip-path: url(#clippath-55);
      }

      .st103 {
        clip-path: url(#clippath-73);
      }

      .st104 {
        clip-path: url(#clippath-53);
      }

      .st105 {
        clip-path: url(#clippath-39);
      }

      .st106 {
        clip-path: url(#clippath-81);
      }

      .st107 {
        clip-path: url(#clippath-106);
      }

      .st24 {
        stroke: red;
      }

      .st108 {
        clip-path: url(#clippath-16);
      }

      .st109 {
        clip-path: url(#clippath-2);
      }

      .st25 {
        stroke-width: 0px;
      }

      .st110 {
        clip-path: url(#clippath-29);
      }

      .st34 {
        font-size: 14px;
      }

      .st111 {
        clip-path: url(#clippath-49);
      }

      .st112 {
        clip-path: url(#clippath-37);
      }

      .st113 {
        clip-path: url(#clippath-58);
      }

      .st114 {
        clip-path: url(#clippath-13);
      }

      .st115 {
        clip-path: url(#clippath-86);
      }

      .st116 {
        clip-path: url(#clippath-63);
      }

      .st117 {
        clip-path: url(#clippath-24);
      }

      .st118 {
        clip-path: url(#clippath-94);
      }

      .st119 {
        clip-path: url(#clippath);
      }

      .st120 {
        clip-path: url(#clippath-87);
      }

      .st121 {
        clip-path: url(#clippath-68);
      }

      .st122 {
        clip-path: url(#clippath-83);
      }

      .st123 {
        clip-path: url(#clippath-65);
      }

      .st124 {
        clip-path: url(#clippath-44);
      }

      .st125 {
        clip-path: url(#clippath-115);
      }

      .st126 {
        clip-path: url(#clippath-62);
      }

      .st127 {
        clip-path: url(#clippath-69);
      }
    </style>
    <clipPath id="clippath">
      <rect class="st23" x="74" y="-57.5" width="1" height="510.6"/>
    </clipPath>
    <clipPath id="clippath-1">
      <rect class="st23" x="84.7" y="-57.5" width="1" height="510.6"/>
    </clipPath>
    <clipPath id="clippath-2">
      <rect class="st23" x="92.2" y="-57.5" width="1" height="510.6"/>
    </clipPath>
    <clipPath id="clippath-3">
      <rect class="st23" x="98.1" y="-57.5" width="1" height="510.6"/>
    </clipPath>
    <clipPath id="clippath-4">
      <rect class="st23" x="102.9" y="-57.5" width="1" height="510.6"/>
    </clipPath>
    <clipPath id="clippath-5">
      <rect class="st23" x="107" y="-57.5" width="1" height="510.6"/>
    </clipPath>
    <clipPath id="clippath-6">
      <rect class="st23" x="110.5" y="-57.5" width="1" height="510.6"/>
    </clipPath>
    <clipPath id="clippath-7">
      <rect class="st23" x="113.6" y="-57.5" width="1" height="510.6"/>
    </clipPath>
    <clipPath id="clippath-8">
      <rect class="st23" x="116.4" y="-57.5" width="1" height="510.6"/>
    </clipPath>
    <clipPath id="clippath-9">
      <rect class="st23" x="134.7" y="-57.5" width="1" height="510.6"/>
    </clipPath>
    <clipPath id="clippath-10">
      <rect class="st23" x="145.4" y="-57.5" width="1" height="510.6"/>
    </clipPath>
    <clipPath id="clippath-11">
      <rect class="st23" x="152.9" y="-57.5" width="1" height="510.6"/>
    </clipPath>
    <clipPath id="clippath-12">
      <rect class="st23" x="158.8" y="-57.5" width="1" height="510.6"/>
    </clipPath>
    <clipPath id="clippath-13">
      <rect class="st23" x="163.6" y="-57.5" width="1" height="510.6"/>
    </clipPath>
    <clipPath id="clippath-14">
      <rect class="st23" x="167.7" y="-57.5" width="1" height="510.6"/>
    </clipPath>
    <clipPath id="clippath-15">
      <rect class="st23" x="171.2" y="-57.5" width="1" height="510.6"/>
    </clipPath>
    <clipPath id="clippath-16">
      <rect class="st23" x="174.3" y="-57.5" width="1" height="510.6"/>
    </clipPath>
    <clipPath id="clippath-17">
      <rect class="st23" x="177.1" y="-57.5" width="1" height="510.6"/>
    </clipPath>
    <clipPath id="clippath-18">
      <rect class="st23" x="195.4" y="-57.5" width="1" height="510.6"/>
    </clipPath>
    <clipPath id="clippath-19">
      <rect class="st23" x="206.1" y="-57.5" width="1" height="510.6"/>
    </clipPath>
    <clipPath id="clippath-20">
      <rect class="st23" x="213.6" y="-57.5" width="1" height="510.6"/>
    </clipPath>
    <clipPath id="clippath-21">
      <rect class="st23" x="219.5" y="-57.5" width="1" height="510.6"/>
    </clipPath>
    <clipPath id="clippath-22">
      <rect class="st23" x="224.3" y="-57.5" width="1" height="510.6"/>
    </clipPath>
    <clipPath id="clippath-23">
      <rect class="st23" x="228.4" y="-57.5" width="1" height="510.6"/>
    </clipPath>
    <clipPath id="clippath-24">
      <rect class="st23" x="231.9" y="-57.5" width="1" height="510.6"/>
    </clipPath>
    <clipPath id="clippath-25">
      <rect class="st23" x="235" y="-57.5" width="1" height="510.6"/>
    </clipPath>
    <clipPath id="clippath-26">
      <rect class="st23" x="237.8" y="-57.5" width="1" height="510.6"/>
    </clipPath>
    <clipPath id="clippath-27">
      <rect class="st23" x="256.1" y="-57.5" width="1" height="510.6"/>
    </clipPath>
    <clipPath id="clippath-28">
      <rect class="st23" x="266.8" y="-57.5" width="1" height="510.6"/>
    </clipPath>
    <clipPath id="clippath-29">
      <rect class="st23" x="274.3" y="-57.5" width="1" height="510.6"/>
    </clipPath>
    <clipPath id="clippath-30">
      <rect class="st23" x="280.2" y="-57.5" width="1" height="510.6"/>
    </clipPath>
    <clipPath id="clippath-31">
      <rect class="st23" x="285" y="-57.5" width="1" height="510.6"/>
    </clipPath>
    <clipPath id="clippath-32">
      <rect class="st23" x="289.1" y="-57.5" width="1" height="510.6"/>
    </clipPath>
    <clipPath id="clippath-33">
      <rect class="st23" x="292.6" y="-57.5" width="1" height="510.6"/>
    </clipPath>
    <clipPath id="clippath-34">
      <rect class="st23" x="295.7" y="-57.5" width="1" height="510.6"/>
    </clipPath>
    <clipPath id="clippath-35">
      <rect class="st23" x="298.5" y="-57.5" width="1" height="510.6"/>
    </clipPath>
    <clipPath id="clippath-36">
      <rect class="st23" x="316.8" y="-57.5" width="1" height="510.6"/>
    </clipPath>
    <clipPath id="clippath-37">
      <rect class="st23" x="327.5" y="-57.5" width="1" height="510.6"/>
    </clipPath>
    <clipPath id="clippath-38">
      <rect class="st23" x="335" y="-57.5" width="1" height="510.6"/>
    </clipPath>
    <clipPath id="clippath-39">
      <rect class="st23" x="340.9" y="-57.5" width="1" height="510.6"/>
    </clipPath>
    <clipPath id="clippath-40">
      <rect class="st23" x="345.7" y="-57.5" width="1" height="510.6"/>
    </clipPath>
    <clipPath id="clippath-41">
      <rect class="st23" x="349.8" y="-57.5" width="1" height="510.6"/>
    </clipPath>
    <clipPath id="clippath-42">
      <rect class="st23" x="353.3" y="-57.5" width="1" height="510.6"/>
    </clipPath>
    <clipPath id="clippath-43">
      <rect class="st23" x="356.4" y="-57.5" width="1" height="510.6"/>
    </clipPath>
    <clipPath id="clippath-44">
      <rect class="st23" x="359.2" y="-57.5" width="1" height="510.6"/>
    </clipPath>
    <clipPath id="clippath-45">
      <rect class="st23" x="377.5" y="-57.5" width="1" height="510.6"/>
    </clipPath>
    <clipPath id="clippath-46">
      <rect class="st23" x="388.2" y="-57.5" width="1" height="510.6"/>
    </clipPath>
    <clipPath id="clippath-47">
      <rect class="st23" x="395.7" y="-57.5" width="1" height="510.6"/>
    </clipPath>
    <clipPath id="clippath-48">
      <rect class="st23" x="401.6" y="-57.5" width="1" height="510.6"/>
    </clipPath>
    <clipPath id="clippath-49">
      <rect class="st23" x="406.4" y="-57.5" width="1" height="510.6"/>
    </clipPath>
    <clipPath id="clippath-50">
      <rect class="st23" x="410.5" y="-57.5" width="1" height="510.6"/>
    </clipPath>
    <clipPath id="clippath-51">
      <rect class="st23" x="414" y="-57.5" width="1" height="510.6"/>
    </clipPath>
    <clipPath id="clippath-52">
      <rect class="st23" x="417.1" y="-57.5" width="1" height="510.6"/>
    </clipPath>
    <clipPath id="clippath-53">
      <rect class="st23" x="419.9" y="-57.5" width="1" height="510.6"/>
    </clipPath>
    <clipPath id="clippath-54">
      <rect class="st23" x="438.2" y="-57.5" width="1" height="510.6"/>
    </clipPath>
    <clipPath id="clippath-55">
      <rect class="st23" x="448.9" y="-57.5" width="1" height="510.6"/>
    </clipPath>
    <clipPath id="clippath-56">
      <rect class="st23" x="456.4" y="-57.5" width="1" height="510.6"/>
    </clipPath>
    <clipPath id="clippath-57">
      <rect class="st23" x="462.3" y="-57.5" width="1" height="510.6"/>
    </clipPath>
    <clipPath id="clippath-58">
      <rect class="st23" x="467.1" y="-57.5" width="1" height="510.6"/>
    </clipPath>
    <clipPath id="clippath-59">
      <rect class="st23" x="471.2" y="-57.5" width="1" height="510.6"/>
    </clipPath>
    <clipPath id="clippath-60">
      <rect class="st23" x="474.7" y="-57.5" width="1" height="510.6"/>
    </clipPath>
    <clipPath id="clippath-61">
      <rect class="st23" x="477.8" y="-57.5" width="1" height="510.6"/>
    </clipPath>
    <clipPath id="clippath-62">
      <rect class="st23" x="480.6" y="-57.5" width="1" height="510.6"/>
    </clipPath>
    <clipPath id="clippath-63">
      <rect class="st23" x="498.9" y="-57.5" width="1" height="510.6"/>
    </clipPath>
    <clipPath id="clippath-64">
      <rect class="st23" x="509.6" y="-57.5" width="1" height="510.6"/>
    </clipPath>
    <clipPath id="clippath-65">
      <rect class="st23" x="517.1" y="-57.5" width="1" height="510.6"/>
    </clipPath>
    <clipPath id="clippath-66">
      <rect class="st23" x="523" y="-57.5" width="1" height="510.6"/>
    </clipPath>
    <clipPath id="clippath-67">
      <rect class="st23" x="527.8" y="-57.5" width="1" height="510.6"/>
    </clipPath>
    <clipPath id="clippath-68">
      <rect class="st23" x="531.9" y="-57.5" width="1" height="510.6"/>
    </clipPath>
    <clipPath id="clippath-69">
      <rect class="st23" x="535.4" y="-57.5" width="1" height="510.6"/>
    </clipPath>
    <clipPath id="clippath-70">
      <rect class="st23" x="538.5" y="-57.5" width="1" height="510.6"/>
    </clipPath>
    <clipPath id="clippath-71">
      <rect class="st23" x="541.3" y="-57.5" width="1" height="510.6"/>
    </clipPath>
    <clipPath id="clippath-72">
      <rect class="st23" x="559.6" y="-57.5" width="1" height="510.6"/>
    </clipPath>
    <clipPath id="clippath-73">
      <rect class="st23" x="570.3" y="-57.5" width="1" height="510.6"/>
    </clipPath>
    <clipPath id="clippath-74">
      <rect class="st23" x="577.8" y="-57.5" width="1" height="510.6"/>
    </clipPath>
    <clipPath id="clippath-75">
      <rect class="st23" x="583.7" y="-57.5" width="1" height="510.6"/>
    </clipPath>
    <clipPath id="clippath-76">
      <rect class="st23" x="588.5" y="-57.5" width="1" height="510.6"/>
    </clipPath>
    <clipPath id="clippath-77">
      <rect class="st23" x="592.6" y="-57.5" width="1" height="510.6"/>
    </clipPath>
    <clipPath id="clippath-78">
      <rect class="st23" x="596.1" y="-57.5" width="1" height="510.6"/>
    </clipPath>
    <clipPath id="clippath-79">
      <rect class="st23" x="599.2" y="-57.5" width="1" height="510.6"/>
    </clipPath>
    <clipPath id="clippath-80">
      <rect class="st23" x="602" y="-57.5" width="1" height="510.6"/>
    </clipPath>
    <clipPath id="clippath-81">
      <rect class="st23" x="620.3" y="-57.5" width="1" height="510.6"/>
    </clipPath>
    <clipPath id="clippath-82">
      <rect class="st23" x="631" y="-57.5" width="1" height="510.6"/>
    </clipPath>
    <clipPath id="clippath-83">
      <rect class="st23" x="638.5" y="-57.5" width="1" height="510.6"/>
    </clipPath>
    <clipPath id="clippath-84">
      <rect class="st23" x="644.4" y="-57.5" width="1" height="510.6"/>
    </clipPath>
    <clipPath id="clippath-85">
      <rect class="st23" x="649.2" y="-57.5" width="1" height="510.6"/>
    </clipPath>
    <clipPath id="clippath-86">
      <rect class="st23" x="653.3" y="-57.5" width="1" height="510.6"/>
    </clipPath>
    <clipPath id="clippath-87">
      <rect class="st23" x="656.8" y="-57.5" width="1" height="510.6"/>
    </clipPath>
    <clipPath id="clippath-88">
      <rect class="st23" x="659.9" y="-57.5" width="1" height="510.6"/>
    </clipPath>
    <clipPath id="clippath-89">
      <rect class="st23" x="662.7" y="-57.5" width="1" height="510.6"/>
    </clipPath>
    <clipPath id="clippath-90">
      <rect class="st23" x="681" y="-57.5" width="1" height="510.6"/>
    </clipPath>
    <clipPath id="clippath-91">
      <rect class="st23" x="691.7" y="-57.5" width="1" height="510.6"/>
    </clipPath>
    <clipPath id="clippath-92">
      <rect class="st23" x="699.2" y="-57.5" width="1" height="510.6"/>
    </clipPath>
    <clipPath id="clippath-93">
      <rect class="st23" x="705.1" y="-57.5" width="1" height="510.6"/>
    </clipPath>
    <clipPath id="clippath-94">
      <rect class="st23" x="709.9" y="-57.5" width="1" height="510.6"/>
    </clipPath>
    <clipPath id="clippath-95">
      <rect class="st23" x="714" y="-57.5" width="1" height="510.6"/>
    </clipPath>
    <clipPath id="clippath-96">
      <rect class="st23" x="717.5" y="-57.5" width="1" height="510.6"/>
    </clipPath>
    <clipPath id="clippath-97">
      <rect class="st23" x="720.6" y="-57.5" width="1" height="510.6"/>
    </clipPath>
    <clipPath id="clippath-98">
      <rect class="st23" x="723.4" y="-57.5" width="1" height="510.6"/>
    </clipPath>
    <clipPath id="clippath-99">
      <rect class="st23" x="741.7" y="-57.5" width="1" height="510.6"/>
    </clipPath>
    <clipPath id="clippath-100">
      <rect class="st23" x="752.4" y="-57.5" width="1" height="510.6"/>
    </clipPath>
    <clipPath id="clippath-101">
      <rect class="st23" x="759.9" y="-57.5" width="1" height="510.6"/>
    </clipPath>
    <clipPath id="clippath-102">
      <rect class="st23" x="765.8" y="-57.5" width="1" height="510.6"/>
    </clipPath>
    <clipPath id="clippath-103">
      <rect class="st23" x="770.6" y="-57.5" width="1" height="510.6"/>
    </clipPath>
    <clipPath id="clippath-104">
      <rect class="st23" x="774.7" y="-57.5" width="1" height="510.6"/>
    </clipPath>
    <clipPath id="clippath-105">
      <rect class="st23" x="778.2" y="-57.5" width="1" height="510.6"/>
    </clipPath>
    <clipPath id="clippath-106">
      <rect class="st23" x="781.3" y="-57.5" width="1" height="510.6"/>
    </clipPath>
    <clipPath id="clippath-107">
      <rect class="st23" x="784.1" y="-57.5" width="1" height="510.6"/>
    </clipPath>
    <clipPath id="clippath-108">
      <rect class="st23" x="56.2" y="379.8" width="728.9" height="1"/>
    </clipPath>
    <clipPath id="clippath-109">
      <rect class="st23" x="56.2" y="306.9" width="728.9" height="1"/>
    </clipPath>
    <clipPath id="clippath-110">
      <rect class="st23" x="56.2" y="234" width="728.9" height="1"/>
    </clipPath>
    <clipPath id="clippath-111">
      <rect class="st23" x="56.2" y="161.2" width="728.9" height="1"/>
    </clipPath>
    <clipPath id="clippath-112">
      <rect class="st23" x="56.2" y="88.3" width="728.9" height="1"/>
    </clipPath>
    <clipPath id="clippath-113">
      <rect class="st23" x="56.2" y="15.4" width="728.9" height="1"/>
    </clipPath>
    <clipPath id="clippath-114">
      <rect class="st23" x="56.2" y="-57.5" width="728.9" height="1"/>
    </clipPath>
    <clipPath id="clippath-115">
      <rect class="st23" x="56.2" y="15.4" width="396.3" height="27.4"/>
    </clipPath>
    <clipPath id="clippath-116">
      <rect class="st23" x="759.8" y="408.7" width="24.8" height="30.2"/>
    </clipPath>
  </defs>
  <rect class="st45" x="323.4" y="-86" width="142.5" height="18.1"/>
  <rect class="st45" x="584.6" y="-67.9" width="156.6" height="7.9"/>
  <line class="st24" x1="19.7" y1="499.7" x2="50.5" y2="499.7"/>
  <rect class="st45" x="19.4" y="488.7" width="43.3" height="9.1"/>
  <rect class="st45" x="418.8" y="473.4" width="3.2" height="13.6"/>
  <rect class="st45" x="56.2" y="459.1" width="14" height="11.3"/>
  <g class="st31">
    <text class="st32" transform="translate(56.2 468.3)"><tspan x="0" y="0">1</tspan></text>
    <text class="st32" transform="translate(61.8 468.3)"><tspan x="0" y="0">m</tspan></text>
  </g>
  <rect class="st45" x="771.2" y="459.1" width="13.4" height="11.3"/>
  <g class="st31">
    <text class="st30" transform="translate(19.4 496.1)"><tspan x="0" y="0">B</tspan></text>
    <text class="st30" transform="translate(24.6 496.1)"><tspan x="0" y="0">o</tspan></text>
    <text class="st30" transform="translate(29.1 496.1)"><tspan x="0" y="0">de</tspan></text>
    <text class="st30" transform="translate(37.9 496.1)"><tspan x="0" y="0" xml:space="preserve"> R</tspan></text>
    <text class="st30" transform="translate(45.7 496.1)"><tspan x="0" y="0">e</tspan></text>
    <text class="st30" transform="translate(50.2 496.1)"><tspan x="0" y="0">s</tspan></text>
    <text class="st30" transform="translate(54.1 496.1)"><tspan x="0" y="0">u</tspan></text>
    <text class="st30" transform="translate(58.6 496.1)"><tspan x="0" y="0">l</tspan></text>
    <text class="st30" transform="translate(60.4 496.1)"><tspan x="0" y="0">t</tspan></text>
  </g>
  <g class="st31">
    <text class="st32" transform="translate(771.2 468.3)"><tspan x="0" y="0">1</tspan></text>
    <text class="st32" transform="translate(776.8 468.3)"><tspan x="0" y="0">G</tspan></text>
  </g>
  <rect class="st45" x="165" y="459.1" width="25.1" height="11.3"/>
  <g class="st31">
    <text class="st32" transform="translate(165 468.3)"><tspan x="0" y="0">100</tspan></text>
    <text class="st32" transform="translate(181.8 468.3)"><tspan x="0" y="0">m</tspan></text>
  </g>
  <rect class="st45" x="653.4" y="459.1" width="19.6" height="11.3"/>
  <g class="st31">
    <text class="st32" transform="translate(653.4 468.3)"><tspan x="0" y="0">10</tspan></text>
    <text class="st32" transform="translate(664.6 468.3)"><tspan x="0" y="0">M</tspan></text>
  </g>
  <rect class="st45" x="293.4" y="459.1" width="11.2" height="11.3"/>
  <g class="st31">
    <text class="st32" transform="translate(293.4 468.3)"><tspan x="0" y="0">1</tspan></text>
    <text class="st32" transform="translate(299 468.3)"><tspan x="0" y="0">0</tspan></text>
  </g>
  <rect class="st45" x="530.9" y="459.1" width="21.8" height="11.3"/>
  <g class="st31">
    <text class="st32" transform="translate(530.9 468.3)"><tspan x="0" y="0">100</tspan></text>
    <text class="st32" transform="translate(547.6 468.3)"><tspan x="0" y="0">k</tspan></text>
  </g>
  <rect class="st45" x="415.1" y="459.1" width="10.7" height="11.3"/>
  <g class="st31">
    <text class="st32" transform="translate(415.1 468.3)"><tspan x="0" y="0">1</tspan></text>
    <text class="st32" transform="translate(420.7 468.3)"><tspan x="0" y="0">k</tspan></text>
  </g>
  <line class="st21" x1="56.2" y1="453.1" x2="784.6" y2="453.1"/>
  <line class="st21" x1="56.2" y1="453.1" x2="56.2" y2="456.1"/>
  <line class="st21" x1="74.4" y1="453.1" x2="74.4" y2="454.6"/>
  <line class="st21" x1="85.2" y1="453.1" x2="85.2" y2="454.6"/>
  <line class="st21" x1="92.7" y1="453.1" x2="92.7" y2="454.6"/>
  <line class="st21" x1="98.6" y1="453.1" x2="98.6" y2="454.6"/>
  <line class="st21" x1="103.4" y1="453.1" x2="103.4" y2="454.6"/>
  <line class="st21" x1="107.4" y1="453.1" x2="107.4" y2="454.6"/>
  <line class="st21" x1="111" y1="453.1" x2="111" y2="454.6"/>
  <line class="st21" x1="114.1" y1="453.1" x2="114.1" y2="454.6"/>
  <line class="st21" x1="116.9" y1="453.1" x2="116.9" y2="454.6"/>
  <line class="st21" x1="135.2" y1="453.1" x2="135.2" y2="454.6"/>
  <line class="st21" x1="145.8" y1="453.1" x2="145.8" y2="454.6"/>
  <line class="st21" x1="153.4" y1="453.1" x2="153.4" y2="454.6"/>
  <line class="st21" x1="159.3" y1="453.1" x2="159.3" y2="454.6"/>
  <line class="st21" x1="164.1" y1="453.1" x2="164.1" y2="454.6"/>
  <line class="st21" x1="168.2" y1="453.1" x2="168.2" y2="454.6"/>
  <line class="st21" x1="171.7" y1="453.1" x2="171.7" y2="454.6"/>
  <line class="st21" x1="174.8" y1="453.1" x2="174.8" y2="454.6"/>
  <line class="st21" x1="177.6" y1="453.1" x2="177.6" y2="456.1"/>
  <line class="st21" x1="195.9" y1="453.1" x2="195.9" y2="454.6"/>
  <line class="st21" x1="206.6" y1="453.1" x2="206.6" y2="454.6"/>
  <line class="st21" x1="214.1" y1="453.1" x2="214.1" y2="454.6"/>
  <line class="st21" x1="220" y1="453.1" x2="220" y2="454.6"/>
  <line class="st21" x1="224.8" y1="453.1" x2="224.8" y2="454.6"/>
  <line class="st21" x1="228.9" y1="453.1" x2="228.9" y2="454.6"/>
  <line class="st21" x1="232.4" y1="453.1" x2="232.4" y2="454.6"/>
  <line class="st21" x1="235.5" y1="453.1" x2="235.5" y2="454.6"/>
  <line class="st21" x1="238.3" y1="453.1" x2="238.3" y2="454.6"/>
  <line class="st21" x1="256.5" y1="453.1" x2="256.5" y2="454.6"/>
  <line class="st21" x1="267.3" y1="453.1" x2="267.3" y2="454.6"/>
  <line class="st21" x1="274.8" y1="453.1" x2="274.8" y2="454.6"/>
  <line class="st21" x1="280.7" y1="453.1" x2="280.7" y2="454.6"/>
  <line class="st21" x1="285.5" y1="453.1" x2="285.5" y2="454.6"/>
  <line class="st21" x1="289.5" y1="453.1" x2="289.5" y2="454.6"/>
  <line class="st21" x1="293.1" y1="453.1" x2="293.1" y2="454.6"/>
  <line class="st21" x1="296.2" y1="453.1" x2="296.2" y2="454.6"/>
  <line class="st21" x1="299" y1="453.1" x2="299" y2="456.1"/>
  <line class="st21" x1="317.3" y1="453.1" x2="317.3" y2="454.6"/>
  <line class="st21" x1="327.9" y1="453.1" x2="327.9" y2="454.6"/>
  <line class="st21" x1="335.5" y1="453.1" x2="335.5" y2="454.6"/>
  <line class="st21" x1="341.4" y1="453.1" x2="341.4" y2="454.6"/>
  <line class="st21" x1="346.2" y1="453.1" x2="346.2" y2="454.6"/>
  <line class="st21" x1="350.3" y1="453.1" x2="350.3" y2="454.6"/>
  <line class="st21" x1="353.8" y1="453.1" x2="353.8" y2="454.6"/>
  <line class="st21" x1="356.9" y1="453.1" x2="356.9" y2="454.6"/>
  <line class="st21" x1="359.7" y1="453.1" x2="359.7" y2="454.6"/>
  <line class="st21" x1="378" y1="453.1" x2="378" y2="454.6"/>
  <line class="st21" x1="388.7" y1="453.1" x2="388.7" y2="454.6"/>
  <line class="st21" x1="396.2" y1="453.1" x2="396.2" y2="454.6"/>
  <line class="st21" x1="402.1" y1="453.1" x2="402.1" y2="454.6"/>
  <line class="st21" x1="406.9" y1="453.1" x2="406.9" y2="454.6"/>
  <line class="st21" x1="411" y1="453.1" x2="411" y2="454.6"/>
  <line class="st21" x1="414.5" y1="453.1" x2="414.5" y2="454.6"/>
  <line class="st21" x1="417.6" y1="453.1" x2="417.6" y2="454.6"/>
  <line class="st21" x1="420.4" y1="453.1" x2="420.4" y2="456.1"/>
  <line class="st21" x1="438.6" y1="453.1" x2="438.6" y2="454.6"/>
  <line class="st21" x1="449.4" y1="453.1" x2="449.4" y2="454.6"/>
  <line class="st21" x1="456.9" y1="453.1" x2="456.9" y2="454.6"/>
  <line class="st21" x1="462.8" y1="453.1" x2="462.8" y2="454.6"/>
  <line class="st21" x1="467.6" y1="453.1" x2="467.6" y2="454.6"/>
  <line class="st21" x1="471.6" y1="453.1" x2="471.6" y2="454.6"/>
  <line class="st21" x1="475.2" y1="453.1" x2="475.2" y2="454.6"/>
  <line class="st21" x1="478.3" y1="453.1" x2="478.3" y2="454.6"/>
  <line class="st21" x1="481.1" y1="453.1" x2="481.1" y2="454.6"/>
  <line class="st21" x1="499.4" y1="453.1" x2="499.4" y2="454.6"/>
  <line class="st21" x1="510" y1="453.1" x2="510" y2="454.6"/>
  <line class="st21" x1="517.6" y1="453.1" x2="517.6" y2="454.6"/>
  <line class="st21" x1="523.5" y1="453.1" x2="523.5" y2="454.6"/>
  <line class="st21" x1="528.3" y1="453.1" x2="528.3" y2="454.6"/>
  <line class="st21" x1="532.4" y1="453.1" x2="532.4" y2="454.6"/>
  <line class="st21" x1="535.9" y1="453.1" x2="535.9" y2="454.6"/>
  <line class="st21" x1="539" y1="453.1" x2="539" y2="454.6"/>
  <line class="st21" x1="541.8" y1="453.1" x2="541.8" y2="456.1"/>
  <line class="st21" x1="560.1" y1="453.1" x2="560.1" y2="454.6"/>
  <line class="st21" x1="570.8" y1="453.1" x2="570.8" y2="454.6"/>
  <line class="st21" x1="578.3" y1="453.1" x2="578.3" y2="454.6"/>
  <line class="st21" x1="584.2" y1="453.1" x2="584.2" y2="454.6"/>
  <line class="st21" x1="589" y1="453.1" x2="589" y2="454.6"/>
  <line class="st21" x1="593.1" y1="453.1" x2="593.1" y2="454.6"/>
  <line class="st21" x1="596.6" y1="453.1" x2="596.6" y2="454.6"/>
  <line class="st21" x1="599.7" y1="453.1" x2="599.7" y2="454.6"/>
  <line class="st21" x1="602.5" y1="453.1" x2="602.5" y2="454.6"/>
  <line class="st21" x1="620.7" y1="453.1" x2="620.7" y2="454.6"/>
  <line class="st21" x1="631.5" y1="453.1" x2="631.5" y2="454.6"/>
  <line class="st21" x1="639" y1="453.1" x2="639" y2="454.6"/>
  <line class="st21" x1="644.9" y1="453.1" x2="644.9" y2="454.6"/>
  <line class="st21" x1="649.7" y1="453.1" x2="649.7" y2="454.6"/>
  <line class="st21" x1="653.7" y1="453.1" x2="653.7" y2="454.6"/>
  <line class="st21" x1="657.3" y1="453.1" x2="657.3" y2="454.6"/>
  <line class="st21" x1="660.4" y1="453.1" x2="660.4" y2="454.6"/>
  <line class="st21" x1="663.2" y1="453.1" x2="663.2" y2="456.1"/>
  <line class="st21" x1="681.5" y1="453.1" x2="681.5" y2="454.6"/>
  <line class="st21" x1="692.1" y1="453.1" x2="692.1" y2="454.6"/>
  <line class="st21" x1="699.7" y1="453.1" x2="699.7" y2="454.6"/>
  <line class="st21" x1="705.6" y1="453.1" x2="705.6" y2="454.6"/>
  <line class="st21" x1="710.4" y1="453.1" x2="710.4" y2="454.6"/>
  <line class="st21" x1="714.5" y1="453.1" x2="714.5" y2="454.6"/>
  <line class="st21" x1="718" y1="453.1" x2="718" y2="454.6"/>
  <line class="st21" x1="721.1" y1="453.1" x2="721.1" y2="454.6"/>
  <line class="st21" x1="723.9" y1="453.1" x2="723.9" y2="454.6"/>
  <line class="st21" x1="742.2" y1="453.1" x2="742.2" y2="454.6"/>
  <line class="st21" x1="752.9" y1="453.1" x2="752.9" y2="454.6"/>
  <line class="st21" x1="760.4" y1="453.1" x2="760.4" y2="454.6"/>
  <line class="st21" x1="766.3" y1="453.1" x2="766.3" y2="454.6"/>
  <line class="st21" x1="771.1" y1="453.1" x2="771.1" y2="454.6"/>
  <line class="st21" x1="775.2" y1="453.1" x2="775.2" y2="454.6"/>
  <line class="st21" x1="778.7" y1="453.1" x2="778.7" y2="454.6"/>
  <line class="st21" x1="781.8" y1="453.1" x2="781.8" y2="454.6"/>
  <line class="st21" x1="784.6" y1="453.1" x2="784.6" y2="456.1"/>
  <rect class="st45" x="2.5" y="172.4" width="14" height="51.4"/>
  <g class="st31">
    <text class="st33" transform="translate(13.8 223.7) rotate(-90)"><tspan x="0" y="0">Gain (dB)</tspan></text>
  </g>
  <rect class="st45" x="33.1" y="441.8" width="20.2" height="11.3"/>
  <rect class="st45" x="42" y="-57" width="11.2" height="11.3"/>
  <g class="st31">
    <text class="st32" transform="translate(33.1 451)"><tspan x="0" y="0">-12</tspan></text>
    <text class="st32" transform="translate(47.6 451)"><tspan x="0" y="0">0</tspan></text>
  </g>
  <g class="st31">
    <text class="st32" transform="translate(42 -47.8)"><tspan x="0" y="0">2</tspan></text>
    <text class="st32" transform="translate(47.6 -47.8)"><tspan x="0" y="0">0</tspan></text>
  </g>
  <rect class="st45" x="33.1" y="374.6" width="20.2" height="11.3"/>
  <g class="st31">
    <text class="st32" transform="translate(33.1 383.9)"><tspan x="0" y="0">-10</tspan></text>
    <text class="st32" transform="translate(47.6 383.9)"><tspan x="0" y="0">0</tspan></text>
  </g>
  <rect class="st45" x="47.6" y="10.2" width="5.6" height="11.3"/>
  <g class="st31">
    <text class="st32" transform="translate(47.6 19.5)"><tspan x="0" y="0">0</tspan></text>
  </g>
  <rect class="st45" x="38.7" y="301.8" width="14.6" height="11.3"/>
  <rect class="st45" x="38.7" y="83.1" width="14.6" height="11.3"/>
  <g class="st31">
    <text class="st32" transform="translate(38.7 311)"><tspan x="0" y="0">-8</tspan></text>
    <text class="st32" transform="translate(47.6 311)"><tspan x="0" y="0">0</tspan></text>
  </g>
  <rect class="st45" x="38.7" y="228.9" width="14.6" height="11.3"/>
  <g class="st31">
    <text class="st32" transform="translate(38.7 92.3)"><tspan x="0" y="0">-2</tspan></text>
    <text class="st32" transform="translate(47.6 92.3)"><tspan x="0" y="0">0</tspan></text>
  </g>
  <rect class="st45" x="38.7" y="156" width="14.6" height="11.3"/>
  <g class="st31">
    <text class="st32" transform="translate(38.7 238.1)"><tspan x="0" y="0">-6</tspan></text>
    <text class="st32" transform="translate(47.6 238.1)"><tspan x="0" y="0">0</tspan></text>
  </g>
  <line class="st21" x1="56.2" y1="453.1" x2="56.2" y2="-57"/>
  <g class="st31">
    <text class="st32" transform="translate(38.7 165.2)"><tspan x="0" y="0">-4</tspan></text>
    <text class="st32" transform="translate(47.6 165.2)"><tspan x="0" y="0">0</tspan></text>
  </g>
  <line class="st21" x1="56.2" y1="453.1" x2="53.2" y2="453.1"/>
  <line class="st21" x1="56.2" y1="380.3" x2="53.2" y2="380.3"/>
  <line class="st21" x1="56.2" y1="307.4" x2="53.2" y2="307.4"/>
  <line class="st21" x1="56.2" y1="234.5" x2="53.2" y2="234.5"/>
  <line class="st21" x1="56.2" y1="161.7" x2="53.2" y2="161.7"/>
  <line class="st21" x1="56.2" y1="88.8" x2="53.2" y2="88.8"/>
  <line class="st21" x1="56.2" y1="15.9" x2="53.2" y2="15.9"/>
  <line class="st21" x1="56.2" y1="-57" x2="53.2" y2="-57"/>
  <g class="st119">
    <line class="st22" x1="74.4" y1="453.1" x2="74.4" y2="-57"/>
  </g>
  <g class="st68">
    <line class="st22" x1="85.2" y1="453.1" x2="85.2" y2="-57"/>
  </g>
  <g class="st109">
    <line class="st22" x1="92.7" y1="453.1" x2="92.7" y2="-57"/>
  </g>
  <g class="st87">
    <line class="st22" x1="98.6" y1="453.1" x2="98.6" y2="-57"/>
  </g>
  <g class="st20">
    <line class="st22" x1="103.4" y1="453.1" x2="103.4" y2="-57"/>
  </g>
  <g class="st79">
    <line class="st22" x1="107.4" y1="453.1" x2="107.4" y2="-57"/>
  </g>
  <g class="st6">
    <line class="st22" x1="111" y1="453.1" x2="111" y2="-57"/>
  </g>
  <g class="st7">
    <line class="st22" x1="114.1" y1="453.1" x2="114.1" y2="-57"/>
  </g>
  <g class="st82">
    <line class="st22" x1="116.9" y1="453.1" x2="116.9" y2="-57"/>
  </g>
  <g class="st39">
    <line class="st22" x1="135.2" y1="453.1" x2="135.2" y2="-57"/>
  </g>
  <g class="st42">
    <line class="st22" x1="145.8" y1="453.1" x2="145.8" y2="-57"/>
  </g>
  <g class="st55">
    <line class="st22" x1="153.4" y1="453.1" x2="153.4" y2="-57"/>
  </g>
  <g class="st90">
    <line class="st22" x1="159.3" y1="453.1" x2="159.3" y2="-57"/>
  </g>
  <g class="st114">
    <line class="st22" x1="164.1" y1="453.1" x2="164.1" y2="-57"/>
  </g>
  <g class="st92">
    <line class="st22" x1="168.2" y1="453.1" x2="168.2" y2="-57"/>
  </g>
  <g class="st13">
    <line class="st22" x1="171.7" y1="453.1" x2="171.7" y2="-57"/>
  </g>
  <g class="st108">
    <line class="st22" x1="174.8" y1="453.1" x2="174.8" y2="-57"/>
  </g>
  <g class="st8">
    <line class="st22" x1="177.6" y1="453.1" x2="177.6" y2="-57"/>
  </g>
  <g class="st18">
    <line class="st22" x1="195.9" y1="453.1" x2="195.9" y2="-57"/>
  </g>
  <g class="st97">
    <line class="st22" x1="206.6" y1="453.1" x2="206.6" y2="-57"/>
  </g>
  <g class="st80">
    <line class="st22" x1="214.1" y1="453.1" x2="214.1" y2="-57"/>
  </g>
  <g class="st5">
    <line class="st22" x1="220" y1="453.1" x2="220" y2="-57"/>
  </g>
  <g class="st27">
    <line class="st22" x1="224.8" y1="453.1" x2="224.8" y2="-57"/>
  </g>
  <g class="st29">
    <line class="st22" x1="228.9" y1="453.1" x2="228.9" y2="-57"/>
  </g>
  <g class="st117">
    <line class="st22" x1="232.4" y1="453.1" x2="232.4" y2="-57"/>
  </g>
  <g class="st49">
    <line class="st22" x1="235.5" y1="453.1" x2="235.5" y2="-57"/>
  </g>
  <g class="st88">
    <line class="st22" x1="238.3" y1="453.1" x2="238.3" y2="-57"/>
  </g>
  <g class="st50">
    <line class="st22" x1="256.5" y1="453.1" x2="256.5" y2="-57"/>
  </g>
  <g class="st67">
    <line class="st22" x1="267.3" y1="453.1" x2="267.3" y2="-57"/>
  </g>
  <g class="st110">
    <line class="st22" x1="274.8" y1="453.1" x2="274.8" y2="-57"/>
  </g>
  <g class="st94">
    <line class="st22" x1="280.7" y1="453.1" x2="280.7" y2="-57"/>
  </g>
  <g class="st10">
    <line class="st22" x1="285.5" y1="453.1" x2="285.5" y2="-57"/>
  </g>
  <g class="st101">
    <line class="st22" x1="289.5" y1="453.1" x2="289.5" y2="-57"/>
  </g>
  <g class="st14">
    <line class="st22" x1="293.1" y1="453.1" x2="293.1" y2="-57"/>
  </g>
  <g class="st2">
    <line class="st22" x1="296.2" y1="453.1" x2="296.2" y2="-57"/>
  </g>
  <g class="st63">
    <line class="st22" x1="299" y1="453.1" x2="299" y2="-57"/>
  </g>
  <g class="st61">
    <line class="st22" x1="317.3" y1="453.1" x2="317.3" y2="-57"/>
  </g>
  <g class="st112">
    <line class="st22" x1="327.9" y1="453.1" x2="327.9" y2="-57"/>
  </g>
  <g class="st4">
    <line class="st22" x1="335.5" y1="453.1" x2="335.5" y2="-57"/>
  </g>
  <g class="st105">
    <line class="st22" x1="341.4" y1="453.1" x2="341.4" y2="-57"/>
  </g>
  <g class="st77">
    <line class="st22" x1="346.2" y1="453.1" x2="346.2" y2="-57"/>
  </g>
  <g class="st84">
    <line class="st22" x1="350.3" y1="453.1" x2="350.3" y2="-57"/>
  </g>
  <g class="st43">
    <line class="st22" x1="353.8" y1="453.1" x2="353.8" y2="-57"/>
  </g>
  <g class="st46">
    <line class="st22" x1="356.9" y1="453.1" x2="356.9" y2="-57"/>
  </g>
  <g class="st124">
    <line class="st22" x1="359.7" y1="453.1" x2="359.7" y2="-57"/>
  </g>
  <g class="st72">
    <line class="st22" x1="378" y1="453.1" x2="378" y2="-57"/>
  </g>
  <g class="st76">
    <line class="st22" x1="388.7" y1="453.1" x2="388.7" y2="-57"/>
  </g>
  <g class="st19">
    <line class="st22" x1="396.2" y1="453.1" x2="396.2" y2="-57"/>
  </g>
  <g class="st65">
    <line class="st22" x1="402.1" y1="453.1" x2="402.1" y2="-57"/>
  </g>
  <g class="st111">
    <line class="st22" x1="406.9" y1="453.1" x2="406.9" y2="-57"/>
  </g>
  <g class="st91">
    <line class="st22" x1="411" y1="453.1" x2="411" y2="-57"/>
  </g>
  <g class="st1">
    <line class="st22" x1="414.5" y1="453.1" x2="414.5" y2="-57"/>
  </g>
  <g class="st83">
    <line class="st22" x1="417.6" y1="453.1" x2="417.6" y2="-57"/>
  </g>
  <g class="st104">
    <line class="st22" x1="420.4" y1="453.1" x2="420.4" y2="-57"/>
  </g>
  <g class="st36">
    <line class="st22" x1="438.6" y1="453.1" x2="438.6" y2="-57"/>
  </g>
  <g class="st102">
    <line class="st22" x1="449.4" y1="453.1" x2="449.4" y2="-57"/>
  </g>
  <g class="st69">
    <line class="st22" x1="456.9" y1="453.1" x2="456.9" y2="-57"/>
  </g>
  <g class="st56">
    <line class="st22" x1="462.8" y1="453.1" x2="462.8" y2="-57"/>
  </g>
  <g class="st113">
    <line class="st22" x1="467.6" y1="453.1" x2="467.6" y2="-57"/>
  </g>
  <g class="st44">
    <line class="st22" x1="471.6" y1="453.1" x2="471.6" y2="-57"/>
  </g>
  <g class="st52">
    <line class="st22" x1="475.2" y1="453.1" x2="475.2" y2="-57"/>
  </g>
  <g class="st15">
    <line class="st22" x1="478.3" y1="453.1" x2="478.3" y2="-57"/>
  </g>
  <g class="st126">
    <line class="st22" x1="481.1" y1="453.1" x2="481.1" y2="-57"/>
  </g>
  <g class="st116">
    <line class="st22" x1="499.4" y1="453.1" x2="499.4" y2="-57"/>
  </g>
  <g class="st47">
    <line class="st22" x1="510" y1="453.1" x2="510" y2="-57"/>
  </g>
  <g class="st123">
    <line class="st22" x1="517.6" y1="453.1" x2="517.6" y2="-57"/>
  </g>
  <g class="st37">
    <line class="st22" x1="523.5" y1="453.1" x2="523.5" y2="-57"/>
  </g>
  <g class="st85">
    <line class="st22" x1="528.3" y1="453.1" x2="528.3" y2="-57"/>
  </g>
  <g class="st121">
    <line class="st22" x1="532.4" y1="453.1" x2="532.4" y2="-57"/>
  </g>
  <g class="st127">
    <line class="st22" x1="535.9" y1="453.1" x2="535.9" y2="-57"/>
  </g>
  <g class="st41">
    <line class="st22" x1="539" y1="453.1" x2="539" y2="-57"/>
  </g>
  <g class="st26">
    <line class="st22" x1="541.8" y1="453.1" x2="541.8" y2="-57"/>
  </g>
  <g class="st99">
    <line class="st22" x1="560.1" y1="453.1" x2="560.1" y2="-57"/>
  </g>
  <g class="st103">
    <line class="st22" x1="570.8" y1="453.1" x2="570.8" y2="-57"/>
  </g>
  <g class="st86">
    <line class="st22" x1="578.3" y1="453.1" x2="578.3" y2="-57"/>
  </g>
  <g class="st12">
    <line class="st22" x1="584.2" y1="453.1" x2="584.2" y2="-57"/>
  </g>
  <g class="st0">
    <line class="st22" x1="589" y1="453.1" x2="589" y2="-57"/>
  </g>
  <g class="st96">
    <line class="st22" x1="593.1" y1="453.1" x2="593.1" y2="-57"/>
  </g>
  <g class="st98">
    <line class="st22" x1="596.6" y1="453.1" x2="596.6" y2="-57"/>
  </g>
  <g class="st11">
    <line class="st22" x1="599.7" y1="453.1" x2="599.7" y2="-57"/>
  </g>
  <g class="st9">
    <line class="st22" x1="602.5" y1="453.1" x2="602.5" y2="-57"/>
  </g>
  <g class="st106">
    <line class="st22" x1="620.7" y1="453.1" x2="620.7" y2="-57"/>
  </g>
  <g class="st35">
    <line class="st22" x1="631.5" y1="453.1" x2="631.5" y2="-57"/>
  </g>
  <g class="st122">
    <line class="st22" x1="639" y1="453.1" x2="639" y2="-57"/>
  </g>
  <g class="st100">
    <line class="st22" x1="644.9" y1="453.1" x2="644.9" y2="-57"/>
  </g>
  <g class="st58">
    <line class="st22" x1="649.7" y1="453.1" x2="649.7" y2="-57"/>
  </g>
  <g class="st115">
    <line class="st22" x1="653.7" y1="453.1" x2="653.7" y2="-57"/>
  </g>
  <g class="st120">
    <line class="st22" x1="657.3" y1="453.1" x2="657.3" y2="-57"/>
  </g>
  <g class="st57">
    <line class="st22" x1="660.4" y1="453.1" x2="660.4" y2="-57"/>
  </g>
  <g class="st75">
    <line class="st22" x1="663.2" y1="453.1" x2="663.2" y2="-57"/>
  </g>
  <g class="st71">
    <line class="st22" x1="681.5" y1="453.1" x2="681.5" y2="-57"/>
  </g>
  <g class="st89">
    <line class="st22" x1="692.1" y1="453.1" x2="692.1" y2="-57"/>
  </g>
  <g class="st62">
    <line class="st22" x1="699.7" y1="453.1" x2="699.7" y2="-57"/>
  </g>
  <g class="st54">
    <line class="st22" x1="705.6" y1="453.1" x2="705.6" y2="-57"/>
  </g>
  <g class="st118">
    <line class="st22" x1="710.4" y1="453.1" x2="710.4" y2="-57"/>
  </g>
  <g class="st81">
    <line class="st22" x1="714.5" y1="453.1" x2="714.5" y2="-57"/>
  </g>
  <g class="st78">
    <line class="st22" x1="718" y1="453.1" x2="718" y2="-57"/>
  </g>
  <g class="st93">
    <line class="st22" x1="721.1" y1="453.1" x2="721.1" y2="-57"/>
  </g>
  <g class="st64">
    <line class="st22" x1="723.9" y1="453.1" x2="723.9" y2="-57"/>
  </g>
  <g class="st74">
    <line class="st22" x1="742.2" y1="453.1" x2="742.2" y2="-57"/>
  </g>
  <g class="st17">
    <line class="st22" x1="752.9" y1="453.1" x2="752.9" y2="-57"/>
  </g>
  <g class="st48">
    <line class="st22" x1="760.4" y1="453.1" x2="760.4" y2="-57"/>
  </g>
  <g class="st40">
    <line class="st22" x1="766.3" y1="453.1" x2="766.3" y2="-57"/>
  </g>
  <g class="st28">
    <line class="st22" x1="771.1" y1="453.1" x2="771.1" y2="-57"/>
  </g>
  <g class="st66">
    <line class="st22" x1="775.2" y1="453.1" x2="775.2" y2="-57"/>
  </g>
  <g class="st60">
    <line class="st22" x1="778.7" y1="453.1" x2="778.7" y2="-57"/>
  </g>
  <g class="st107">
    <line class="st22" x1="781.8" y1="453.1" x2="781.8" y2="-57"/>
  </g>
  <g class="st3">
    <line class="st22" x1="784.6" y1="453.1" x2="784.6" y2="-57"/>
  </g>
  <g class="st70">
    <line class="st22" x1="56.2" y1="380.3" x2="784.6" y2="380.3"/>
  </g>
  <g class="st51">
    <line class="st22" x1="56.2" y1="307.4" x2="784.6" y2="307.4"/>
  </g>
  <g class="st73">
    <line class="st22" x1="56.2" y1="234.5" x2="784.6" y2="234.5"/>
  </g>
  <g class="st59">
    <line class="st22" x1="56.2" y1="161.7" x2="784.6" y2="161.7"/>
  </g>
  <g class="st95">
    <line class="st22" x1="56.2" y1="88.8" x2="784.6" y2="88.8"/>
  </g>
  <g class="st53">
    <line class="st22" x1="56.2" y1="15.9" x2="784.6" y2="15.9"/>
  </g>
  <g class="st38">
    <line class="st22" x1="56.2" y1="-57" x2="784.6" y2="-57"/>
  </g>
  <g class="st125">
    <path class="st24" d="M56.2,15.9h306.5c10.3.2,20.7.2,31,.8h.6c0,0,.7,0,.7,0,5.5.4,11.6.9,17,2.2h.6c0,0,.6.2.6.2h.6c15.3,3.6,25.8,11.3,37,22l.7.6.6.5"/>
  </g>
  <path class="st24" d="M452,42.3l1.2,1.2c12.8,12.9,24.6,27.1,36.4,40.9l.6.8.6.7c12.4,14.8,24.8,29.5,37,44.3l.6.7.7.8.6.7c25.2,30.4,50.6,60.7,75.8,91.1l.6.7.6.7c25.3,30.3,50.6,60.7,75.9,91.1l.6.7.6.7c25.3,30.4,50.6,60.8,75.9,91.1l.6.7"/>
  <g class="st16">
    <path class="st24" d="M760.3,409.2l.6.8c7.7,9.2,15.4,18.4,23,27.7l.6.7"/>
  </g>
  <polyline class="st25" points="432.6 24.6 434.1 25.2 434.9 26.8 434.1 28.4 432.6 29.1 431.1 28.4 430.4 26.8 431.1 25.2 432.6 24.6"/>
  <line class="st25" x1="432.6" y1="26.8" x2="506.8" y2="18.3"/>
  <g class="st31">
    <text class="st34" transform="translate(506.8 19.4)"><tspan x="0" y="0">(1</tspan></text>
    <text class="st34" transform="translate(519.2 19.4)"><tspan x="0" y="0">.</tspan></text>
    <text class="st34" transform="translate(523.1 19.4)"><tspan x="0" y="0">5878k</tspan></text>
    <text class="st34" transform="translate(561.3 19.4)"><tspan x="0" y="0">,</tspan></text>
    <text class="st34" transform="translate(565.2 19.4)"><tspan x="0" y="0" xml:space="preserve"> -3</tspan></text>
    <text class="st34" transform="translate(581.4 19.4)"><tspan x="0" y="0">.</tspan></text>
    <text class="st34" transform="translate(585.3 19.4)"><tspan x="0" y="0">0001dB)</tspan></text>
  </g>
</svg>