<?xml version="1.0" encoding="UTF-8"?>
<svg id="Layer_1" data-name="Layer 1" xmlns="http://www.w3.org/2000/svg" viewBox="0 0 197.07 92.95">
  <defs>
    <style>
      .cls-1 {
        stroke-width: .75px;
      }

      .cls-1, .cls-2 {
        fill: none;
        stroke: #000;
        stroke-linecap: round;
        stroke-linejoin: round;
      }

      .cls-3 {
        letter-spacing: .01em;
      }

      .cls-4 {
        letter-spacing: 0em;
      }

      .cls-5 {
        letter-spacing: .01em;
      }

      .cls-6 {
        letter-spacing: 0em;
      }

      .cls-7 {
        letter-spacing: .02em;
      }

      .cls-8 {
        letter-spacing: 0em;
      }

      .cls-9 {
        letter-spacing: .02em;
      }

      .cls-10 {
        letter-spacing: 0em;
      }

      .cls-11 {
        letter-spacing: 0em;
      }

      .cls-12 {
        letter-spacing: .02em;
      }

      .cls-13 {
        letter-spacing: .01em;
      }

      .cls-2 {
        stroke-width: 1.5px;
      }

      .cls-14 {
        letter-spacing: .01em;
      }

      .cls-15 {
        letter-spacing: 0em;
      }

      .cls-16 {
        font-family: Arial-BoldMT, Arial;
        font-size: 9.78px;
        font-weight: 700;
      }

      .cls-17 {
        fill-rule: evenodd;
      }

      .cls-18 {
        letter-spacing: 0em;
      }

      .cls-19 {
        letter-spacing: .03em;
      }

      .cls-20 {
        letter-spacing: -.05em;
      }
    </style>
  </defs>
  <text class="cls-16" transform="translate(171.38 39.11)"><tspan class="cls-7" x="0" y="0">C</tspan><tspan class="cls-4" x="7.26" y="0">1</tspan></text>
  <line class="cls-2" x1="155.6" y1="46.85" x2="169.1" y2="46.85"/>
  <line class="cls-2" x1="155.6" y1="50.57" x2="169.1" y2="50.57"/>
  <line class="cls-1" x1="162.38" y1="51.35" x2="162.38" y2="58.85"/>
  <text class="cls-16" transform="translate(171.38 51.11)"><tspan class="cls-12" x="0" y="0">0</tspan><tspan class="cls-10" x="5.63" y="0">.</tspan><tspan class="cls-3" x="8.39" y="0">1</tspan><tspan class="cls-14" x="13.97" y="0">µ</tspan><tspan x="19.72" y="0">F</tspan></text>
  <line class="cls-1" x1="162.38" y1="38.57" x2="162.38" y2="46.07"/>
  <rect x="162.38" y="65.57" width=".06" height=".06"/>
  <line class="cls-1" x1="162.38" y1="58.85" x2="162.38" y2="65.57"/>
  <rect x="162.38" y="31.85" width=".06" height=".06"/>
  <line class="cls-1" x1="162.38" y1="38.57" x2="162.38" y2="31.85"/>
  <polygon class="cls-1" points="81.38 85.85 94.88 85.85 88.09 92.57 81.38 85.85"/>
  <rect x="88.1" y="79.07" width=".06" height=".06"/>
  <line class="cls-1" x1="88.1" y1="85.85" x2="88.1" y2="79.07"/>
  <text class="cls-16" transform="translate(28.88 31.61)"><tspan class="cls-12" x="0" y="0">V</tspan><tspan x="6.72" y="0">1</tspan></text>
  <text class="cls-16" transform="translate(28.87 45.11)"><tspan class="cls-12" x="0" y="0">5V</tspan><tspan class="cls-13" x="12.35" y="0">p</tspan><tspan class="cls-11" x="18.47" y="0">k</tspan><tspan class="cls-8" x="23.92" y="0"> </tspan></text>
  <text class="cls-16" transform="translate(28.88 56.32)"><tspan class="cls-12" x="0" y="0">1k</tspan><tspan class="cls-5" x="11.27" y="0">H</tspan><tspan class="cls-6" x="18.46" y="0">z</tspan><tspan class="cls-8" x="23.32" y="0"> </tspan></text>
  <text class="cls-16" transform="translate(28.88 67.54)"><tspan class="cls-12" x="0" y="0">0</tspan><tspan class="cls-18" x="5.63" y="0">°</tspan><tspan x="9.54" y="0"> </tspan></text>
  <line class="cls-1" x1="13.88" y1="40.85" x2="13.88" y2="45.35"/>
  <line class="cls-1" x1="11.6" y1="43.07" x2="16.1" y2="43.07"/>
  <line class="cls-1" x1="11.6" y1="61.07" x2="16.1" y2="61.07"/>
  <path class="cls-1" d="M27.32,52.01c0-7.44-6.06-13.44-13.5-13.44S.38,44.57.38,52.01s6,13.5,13.44,13.5,13.5-6.06,13.5-13.5Z"/>
  <path class="cls-1" d="M13.82,52.07c0-1.26-1.02-2.22-2.22-2.22-1.26,0-2.22.96-2.22,2.22"/>
  <path class="cls-1" d="M13.88,52.07c0,1.2.96,2.22,2.22,2.22s2.22-1.02,2.22-2.22"/>
  <rect x="13.88" y="31.85" width=".06" height=".06"/>
  <line class="cls-1" x1="13.88" y1="38.57" x2="13.88" y2="31.85"/>
  <rect x="13.88" y="72.35" width=".06" height=".06"/>
  <line class="cls-1" x1="13.88" y1="65.57" x2="13.88" y2="72.35"/>
  <text class="cls-16" transform="translate(84.67 9.89)"><tspan class="cls-19" x="0" y="0">R</tspan><tspan class="cls-4" x="7.32" y="0">1</tspan></text>
  <polyline class="cls-1" points="81.38 18.35 83.59 14.57 86.59 21.35 90.38 14.57 93.38 21.35 97.09 14.57 100.09 21.35 101.59 18.35"/>
  <text class="cls-16" transform="translate(81.49 31.61)"><tspan class="cls-12" x="0" y="0">1</tspan><tspan x="5.63" y="0">k</tspan></text>
  <text class="cls-16" transform="translate(92.77 31.61)"><tspan x="0" y="0">Ω</tspan></text>
  <rect x="108.38" y="18.35" width=".06" height=".06"/>
  <line class="cls-1" x1="101.6" y1="18.35" x2="108.38" y2="18.35"/>
  <rect x="74.6" y="18.35" width=".06" height=".06"/>
  <line class="cls-1" x1="81.38" y1="18.35" x2="74.59" y2="18.35"/>
  <polyline class="cls-1" points="13.88 31.85 13.88 18.35 74.6 18.35"/>
  <text class="cls-16" transform="translate(37.87 8.39)"><tspan class="cls-15" x="0" y="0">V</tspan><tspan class="cls-9" x="6.53" y="0">i</tspan><tspan x="9.41" y="0">n</tspan></text>
  <polyline class="cls-1" points="108.38 18.35 162.38 18.35 162.38 31.85"/>
  <text class="cls-16" transform="translate(122.59 8.39)"><tspan class="cls-20" x="0" y="0">V</tspan><tspan class="cls-13" x="6" y="0">ou</tspan><tspan x="18.25" y="0">t</tspan></text>
  <path class="cls-17" d="M89.54,79.01c0-.78-.66-1.44-1.5-1.44s-1.44.66-1.44,1.44c0,.84.6,1.5,1.44,1.5s1.5-.66,1.5-1.5Z"/>
  <path class="cls-1" d="M89.54,79.01c0-.78-.66-1.44-1.5-1.44s-1.44.66-1.44,1.44c0,.84.6,1.5,1.44,1.5s1.5-.66,1.5-1.5Z"/>
  <polyline class="cls-1" points="162.38 65.57 162.38 79.07 88.1 79.07 13.88 79.07 13.88 72.35"/>
  <line class="cls-1" x1="88.1" y1="79.07" x2="88.1" y2="79.07"/>
</svg>