<?xml version="1.0" encoding="UTF-8"?>
<svg id="Layer_1" data-name="Layer 1" xmlns="http://www.w3.org/2000/svg" viewBox="0 0 337.9 267.78">
  <defs>
    <style>
      .cls-1 {
        letter-spacing: 0em;
      }

      .cls-2 {
        letter-spacing: 0em;
      }

      .cls-3 {
        letter-spacing: .02em;
      }

      .cls-4 {
        stroke-width: .75px;
      }

      .cls-4, .cls-5 {
        fill: none;
        stroke: #000;
        stroke-linecap: round;
        stroke-linejoin: round;
      }

      .cls-6 {
        letter-spacing: -.03em;
      }

      .cls-7, .cls-8 {
        fill: #fff;
      }

      .cls-8, .cls-9 {
        fill-rule: evenodd;
      }

      .cls-10 {
        letter-spacing: 0em;
      }

      .cls-11 {
        letter-spacing: .01em;
      }

      .cls-12 {
        letter-spacing: .02em;
      }

      .cls-13 {
        font-family: ArialMT, Arial;
        font-size: 5.28px;
      }

      .cls-14 {
        letter-spacing: .02em;
      }

      .cls-15 {
        letter-spacing: .01em;
      }

      .cls-16 {
        letter-spacing: .02em;
      }

      .cls-17 {
        letter-spacing: .01em;
      }

      .cls-18 {
        letter-spacing: .01em;
      }

      .cls-19 {
        letter-spacing: 0em;
      }

      .cls-20 {
        font-family: Arial-BoldMT, Arial;
      }

      .cls-20, .cls-21 {
        font-size: 9.78px;
        font-weight: 700;
      }

      .cls-22 {
        font-family: Calibri, Calibri;
        font-size: 6.78px;
      }

      .cls-23 {
        letter-spacing: .03em;
      }

      .cls-5 {
        stroke-width: .06px;
      }

      .cls-24 {
        letter-spacing: 0em;
      }

      .cls-25 {
        letter-spacing: 0em;
      }

      .cls-26 {
        letter-spacing: .02em;
      }

      .cls-27 {
        letter-spacing: 0em;
      }

      .cls-21 {
        font-family: CourierNewPS-BoldMT, 'Courier New';
      }

      .cls-28 {
        letter-spacing: -.05em;
      }

      .cls-29 {
        letter-spacing: .05em;
      }
    </style>
  </defs>
  <polygon class="cls-4" points="195.81 202.18 195.81 161.68 236.31 181.9 195.81 202.18"/>
  <line class="cls-4" x1="209.31" y1="161.68" x2="209.31" y2="168.4"/>
  <line class="cls-4" x1="209.31" y1="202.18" x2="209.31" y2="195.4"/>
  <line class="cls-4" x1="202.53" y1="170.68" x2="198.03" y2="170.68"/>
  <line class="cls-4" x1="198.03" y1="193.18" x2="202.53" y2="193.18"/>
  <line class="cls-4" x1="200.31" y1="195.4" x2="200.31" y2="190.9"/>
  <rect x="182.31" y="195.4" width=".06" height=".06"/>
  <line class="cls-4" x1="195.81" y1="195.4" x2="182.31" y2="195.4"/>
  <rect x="182.31" y="168.4" width=".06" height=".06"/>
  <line class="cls-4" x1="195.81" y1="168.4" x2="182.31" y2="168.4"/>
  <rect x="209.31" y="148.18" width=".06" height=".06"/>
  <line class="cls-4" x1="209.31" y1="161.68" x2="209.31" y2="148.18"/>
  <rect x="209.31" y="215.68" width=".06" height=".06"/>
  <line class="cls-4" x1="209.31" y1="202.18" x2="209.31" y2="215.68"/>
  <rect x="249.81" y="181.9" width=".06" height=".06"/>
  <line class="cls-4" x1="236.31" y1="181.9" x2="249.81" y2="181.9"/>
  <line class="cls-5" x1="222.81" y1="229.18" x2="195.81" y2="229.18"/>
  <text class="cls-20" transform="translate(200.31 239.44)"><tspan class="cls-23" x="0" y="0">1</tspan><tspan class="cls-12" x="5.69" y="0">5</tspan><tspan x="11.33" y="0">V</tspan></text>
  <rect x="209.31" y="215.68" width=".06" height=".06"/>
  <line class="cls-4" x1="209.31" y1="229.18" x2="209.31" y2="215.68"/>
  <text class="cls-20" transform="translate(197.31 130.72)"><tspan class="cls-18" x="0" y="0">-15</tspan><tspan x="14.55" y="0">V</tspan></text>
  <line class="cls-5" x1="195.81" y1="134.68" x2="222.81" y2="134.68"/>
  <rect x="209.31" y="148.18" width=".06" height=".06"/>
  <line class="cls-4" x1="209.31" y1="134.68" x2="209.31" y2="148.18"/>
  <rect class="cls-7" x="256.59" y="13.24" width="74.16" height="53.88"/>
  <text class="cls-21" transform="translate(284.97 7.78)"><tspan class="cls-3" x="0" y="0">X</tspan><tspan class="cls-11" x="6.05" y="0">S</tspan><tspan class="cls-3" x="12.05" y="0">C</tspan><tspan x="18.11" y="0">1</tspan></text>
  <path class="cls-5" d="M330.75,13.18,330.75,67.12V13.18h-74.22v53.94h74.22Z"/>
  <rect class="cls-7" x="258.87" y="15.46" width="47.1" height="33.66"/>
  <path class="cls-5" d="M281.25,33.4c0-9.54-4.38-17.22-9.72-17.22s-9.72,7.68-9.72,17.22M281.25,33.4c0-6.24-4.38-11.22-9.72-11.22s-9.72,4.98-9.72,11.22M305.97,49.12V15.4h-47.16v33.72h47.16Z"/>
  <text class="cls-13" transform="translate(261.69 56.86)"><tspan x="0" y="0">A</tspan></text>
  <text class="cls-13" transform="translate(288.69 56.15)"><tspan x="0" y="0">B</tspan></text>
  <path class="cls-5" d="M281.31,31.12c0,6.18,4.32,11.22,9.72,11.22s9.72-5.04,9.72-11.22"/>
  <path class="cls-5" d="M281.31,31.12c0,9.48,4.32,17.22,9.72,17.22s9.72-7.74,9.72-17.22"/>
  <path class="cls-8" d="M293.25,61.12c0-1.62-1.38-2.94-3-2.94s-2.94,1.32-2.94,2.94,1.32,3,2.94,3,3-1.38,3-3Z"/>
  <path class="cls-5" d="M293.25,61.12c0-1.62-1.38-2.94-3-2.94s-2.94,1.32-2.94,2.94,1.32,3,2.94,3,3-1.38,3-3Z"/>
  <path class="cls-8" d="M266.25,61.12c0-1.62-1.38-2.94-3-2.94s-2.94,1.32-2.94,2.94,1.32,3,2.94,3,3-1.38,3-3Z"/>
  <path class="cls-5" d="M266.25,61.12c0-1.62-1.38-2.94-3-2.94s-2.94,1.32-2.94,2.94,1.32,3,2.94,3,3-1.38,3-3Z"/>
  <path class="cls-8" d="M326.97,40.12c0-1.62-1.38-2.94-3-2.94s-2.94,1.32-2.94,2.94,1.32,3,2.94,3,3-1.38,3-3Z"/>
  <path class="cls-5" d="M326.97,40.12c0-1.62-1.38-2.94-3-2.94s-2.94,1.32-2.94,2.94,1.32,3,2.94,3,3-1.38,3-3Z"/>
  <text class="cls-13" transform="translate(311.19 33.64)"><tspan class="cls-15" x="0" y="0">E</tspan><tspan x="3.6" y="0">x</tspan><tspan class="cls-25" x="6.24" y="0">t</tspan><tspan class="cls-29" x="7.68" y="0"> </tspan><tspan class="cls-6" x="9.42" y="0">T</tspan><tspan class="cls-24" x="12.48" y="0">r</tspan><tspan class="cls-27" x="14.22" y="0">i</tspan><tspan class="cls-1" x="15.42" y="0">g</tspan></text>
  <line class="cls-4" x1="290.31" y1="61.18" x2="290.31" y2="67.18"/>
  <line class="cls-4" x1="263.31" y1="62.68" x2="263.31" y2="67.18"/>
  <line class="cls-4" x1="330.81" y1="40.18" x2="324.81" y2="40.18"/>
  <polyline class="cls-4" points="266.31 61.18 270.03 61.18 270.03 67.18"/>
  <polyline class="cls-4" points="293.31 61.18 297.03 61.18 297.03 67.18"/>
  <polyline class="cls-4" points="324.03 43.18 324.03 46.9 330.81 46.9"/>
  <path class="cls-9" d="M264.75,61.12c0-.78-.66-1.44-1.5-1.44s-1.44.66-1.44,1.44c0,.84.6,1.5,1.44,1.5s1.5-.66,1.5-1.5Z"/>
  <path class="cls-5" d="M264.75,61.12c0-.78-.66-1.44-1.5-1.44s-1.44.66-1.44,1.44c0,.84.6,1.5,1.44,1.5s1.5-.66,1.5-1.5Z"/>
  <path class="cls-9" d="M291.75,61.12c0-.78-.66-1.44-1.5-1.44s-1.44.66-1.44,1.44c0,.84.6,1.5,1.44,1.5s1.5-.66,1.5-1.5Z"/>
  <path class="cls-5" d="M291.75,61.12c0-.78-.66-1.44-1.5-1.44s-1.44.66-1.44,1.44c0,.84.6,1.5,1.44,1.5s1.5-.66,1.5-1.5Z"/>
  <path class="cls-9" d="M325.47,40.12c0-.78-.66-1.44-1.5-1.44s-1.44.66-1.44,1.44c0,.84.6,1.5,1.44,1.5s1.5-.66,1.5-1.5Z"/>
  <path class="cls-5" d="M325.47,40.12c0-.78-.66-1.44-1.5-1.44s-1.44.66-1.44,1.44c0,.84.6,1.5,1.44,1.5s1.5-.66,1.5-1.5Z"/>
  <text class="cls-13" transform="translate(327.03 39.64)"><tspan x="0" y="0">+</tspan></text>
  <text class="cls-13" transform="translate(258.03 65.86)"><tspan x="0" y="0">+</tspan></text>
  <text class="cls-13" transform="translate(326.19 48.65)"><tspan x="0" y="0">_</tspan></text>
  <text class="cls-13" transform="translate(271.53 63.65)"><tspan x="0" y="0">_</tspan></text>
  <text class="cls-13" transform="translate(285.03 65.86)"><tspan x="0" y="0">+</tspan></text>
  <text class="cls-13" transform="translate(298.53 63.65)"><tspan x="0" y="0">_</tspan></text>
  <rect x="263.31" y="73.9" width=".06" height=".06"/>
  <line class="cls-4" x1="263.31" y1="67.18" x2="263.31" y2="73.9"/>
  <rect x="290.31" y="73.9" width=".06" height=".06"/>
  <line class="cls-4" x1="290.31" y1="67.18" x2="290.31" y2="73.9"/>
  <rect x="270.03" y="73.9" width=".06" height=".06"/>
  <line class="cls-4" x1="270.03" y1="67.18" x2="270.03" y2="73.9"/>
  <rect x="337.53" y="40.18" width=".06" height=".06"/>
  <line class="cls-4" x1="330.81" y1="40.18" x2="337.53" y2="40.18"/>
  <rect x="297.03" y="73.9" width=".06" height=".06"/>
  <line class="cls-4" x1="297.03" y1="67.18" x2="297.03" y2="73.9"/>
  <rect x="337.53" y="46.9" width=".06" height=".06"/>
  <line class="cls-4" x1="330.81" y1="46.9" x2="337.53" y2="46.9"/>
  <line class="cls-4" x1="209.31" y1="215.68" x2="209.31" y2="215.68"/>
  <line class="cls-4" x1="209.31" y1="148.18" x2="209.31" y2="148.18"/>
  <line class="cls-4" x1="263.31" y1="80.68" x2="276.81" y2="80.68"/>
  <line class="cls-4" x1="265.53" y1="82.9" x2="274.53" y2="82.9"/>
  <line class="cls-4" x1="267.81" y1="85.18" x2="272.31" y2="85.18"/>
  <rect x="270.03" y="73.9" width=".06" height=".06"/>
  <line class="cls-4" x1="270.03" y1="80.68" x2="270.03" y2="73.9"/>
  <line class="cls-4" x1="290.31" y1="80.68" x2="303.81" y2="80.68"/>
  <line class="cls-4" x1="292.53" y1="82.9" x2="301.53" y2="82.9"/>
  <line class="cls-4" x1="294.81" y1="85.18" x2="299.31" y2="85.18"/>
  <rect x="297.03" y="73.9" width=".06" height=".06"/>
  <line class="cls-4" x1="297.03" y1="80.68" x2="297.03" y2="73.9"/>
  <line class="cls-4" x1="27.03" y1="181.9" x2="40.53" y2="181.9"/>
  <line class="cls-4" x1="29.31" y1="184.18" x2="38.31" y2="184.18"/>
  <line class="cls-4" x1="31.53" y1="186.4" x2="36.03" y2="186.4"/>
  <rect x="33.81" y="175.18" width=".06" height=".06"/>
  <line class="cls-4" x1="33.81" y1="181.9" x2="33.81" y2="175.18"/>
  <text class="cls-20" transform="translate(118.11 186.94)"><tspan class="cls-23" x="0" y="0">R</tspan><tspan class="cls-10" x="7.32" y="0">1</tspan></text>
  <polyline class="cls-4" points="114.81 195.4 117.03 191.68 120.03 198.4 123.81 191.68 126.81 198.4 130.53 191.68 133.53 198.4 135.03 195.4"/>
  <text class="cls-20" transform="translate(112.11 208.72)"><tspan class="cls-16" x="0" y="0">10</tspan><tspan x="11.27" y="0">k</tspan></text>
  <text class="cls-20" transform="translate(129.03 208.72)"><tspan x="0" y="0">Ω</tspan></text>
  <rect x="141.81" y="195.4" width=".06" height=".06"/>
  <line class="cls-4" x1="135.03" y1="195.4" x2="141.81" y2="195.4"/>
  <rect x="108.03" y="195.4" width=".06" height=".06"/>
  <line class="cls-4" x1="114.81" y1="195.4" x2="108.03" y2="195.4"/>
  <text class="cls-20" transform="translate(268.53 222.94)"><tspan class="cls-23" x="0" y="0">R</tspan><tspan class="cls-10" x="7.32" y="0">2</tspan></text>
  <text class="cls-20" transform="translate(268.53 236.44)"><tspan class="cls-12" x="0" y="0">22</tspan><tspan x="11.27" y="0">0</tspan></text>
  <text class="cls-20" transform="translate(285.45 236.44)"><tspan x="0" y="0">Ω</tspan></text>
  <polyline class="cls-4" points="263.31 222.4 267.03 224.68 260.31 227.68 267.03 231.4 260.31 234.4 267.03 238.18 260.31 241.18 263.31 242.68"/>
  <rect x="263.31" y="249.4" width=".06" height=".06"/>
  <line class="cls-4" x1="263.31" y1="242.68" x2="263.31" y2="249.4"/>
  <rect x="263.31" y="215.68" width=".06" height=".06"/>
  <line class="cls-4" x1="263.31" y1="222.4" x2="263.31" y2="215.68"/>
  <path class="cls-9" d="M264.75,181.84c0-.78-.66-1.44-1.5-1.44s-1.44.66-1.44,1.44c0,.84.6,1.5,1.44,1.5s1.5-.66,1.5-1.5Z"/>
  <path class="cls-4" d="M264.75,181.84c0-.78-.66-1.44-1.5-1.44s-1.44.66-1.44,1.44c0,.84.6,1.5,1.44,1.5s1.5-.66,1.5-1.5Z"/>
  <polyline class="cls-4" points="249.81 181.9 263.31 181.9 290.31 181.9 290.31 73.9"/>
  <polyline class="cls-4" points="182.31 168.4 155.31 168.4 155.31 100.9 263.31 100.9 263.31 181.9 263.31 215.68"/>
  <line class="cls-4" x1="256.53" y1="262.9" x2="270.03" y2="262.9"/>
  <text class="cls-20" transform="translate(265.53 196.72)"><tspan class="cls-28" x="0" y="0">V</tspan><tspan class="cls-17" x="6" y="0">ou</tspan><tspan x="18.25" y="0">t</tspan></text>
  <line class="cls-4" x1="258.81" y1="265.18" x2="267.81" y2="265.18"/>
  <line class="cls-4" x1="261.03" y1="267.4" x2="265.53" y2="267.4"/>
  <rect x="263.31" y="256.18" width=".06" height=".06"/>
  <line class="cls-4" x1="263.31" y1="262.9" x2="263.31" y2="256.18"/>
  <line class="cls-4" x1="263.31" y1="249.4" x2="263.31" y2="256.18"/>
  <line class="cls-4" x1="141.81" y1="195.4" x2="182.31" y2="195.4"/>
  <rect class="cls-7" x=".09" y="141.46" width="40.38" height="26.88"/>
  <text class="cls-21" transform="translate(8.19 136)"><tspan class="cls-3" x="0" y="0">X</tspan><tspan class="cls-11" x="6.05" y="0">F</tspan><tspan class="cls-3" x="12.05" y="0">G</tspan><tspan x="18.11" y="0">1</tspan></text>
  <path class="cls-5" d="M40.47,141.4,40.47,168.34v-26.94H.03v26.94h40.44Z"/>
  <path class="cls-8" d="M8.97,163.9c0-1.26-1.02-2.22-2.22-2.22-1.26,0-2.22.96-2.22,2.22s.96,2.22,2.22,2.22,2.22-1.02,2.22-2.22Z"/>
  <path class="cls-5" d="M8.97,163.9c0-1.26-1.02-2.22-2.22-2.22-1.26,0-2.22.96-2.22,2.22s.96,2.22,2.22,2.22,2.22-1.02,2.22-2.22Z"/>
  <line class="cls-4" x1="6.81" y1="163.9" x2="6.81" y2="168.4"/>
  <line class="cls-5" x1="4.53" y1="158.68" x2="9.03" y2="158.68"/>
  <path class="cls-8" d="M22.47,163.9c0-1.26-1.02-2.22-2.22-2.22-1.26,0-2.22.96-2.22,2.22s.96,2.22,2.22,2.22,2.22-1.02,2.22-2.22Z"/>
  <path class="cls-5" d="M22.47,163.9c0-1.26-1.02-2.22-2.22-2.22-1.26,0-2.22.96-2.22,2.22s.96,2.22,2.22,2.22,2.22-1.02,2.22-2.22Z"/>
  <line class="cls-4" x1="20.31" y1="163.9" x2="20.31" y2="168.4"/>
  <path class="cls-8" d="M35.97,163.9c0-1.26-1.02-2.22-2.22-2.22-1.26,0-2.22.96-2.22,2.22s.96,2.22,2.22,2.22,2.22-1.02,2.22-2.22Z"/>
  <path class="cls-5" d="M35.97,163.9c0-1.26-1.02-2.22-2.22-2.22-1.26,0-2.22.96-2.22,2.22s.96,2.22,2.22,2.22,2.22-1.02,2.22-2.22Z"/>
  <line class="cls-5" x1="31.53" y1="158.68" x2="36.03" y2="158.68"/>
  <line class="cls-5" x1="6.81" y1="156.4" x2="6.81" y2="160.9"/>
  <line class="cls-4" x1="33.81" y1="163.9" x2="33.81" y2="168.4"/>
  <rect class="cls-7" x="1.59" y="145.24" width="11.16" height="8.1"/>
  <path class="cls-5" d="M4.53,148.18l-2.22,2.22,2.22-2.22-2.22,2.22M4.53,148.18l2.28,2.22,2.22-2.22,3,2.22M12.75,153.34v-8.16H1.53v8.16h11.22Z"/>
  <rect class="cls-7" x="15.09" y="145.24" width="11.16" height="8.1"/>
  <path class="cls-5" d="M15.81,148.9c0,1.2.96,2.22,2.22,2.22s2.22-1.02,2.22-2.22M24.75,149.62c0-1.26-1.02-2.22-2.22-2.22-1.26,0-2.22.96-2.22,2.22M26.25,153.34v-8.16h-11.22v8.16h11.22Z"/>
  <rect class="cls-7" x="28.59" y="145.24" width="11.16" height="8.1"/>
  <path class="cls-5" d="M29.31,150.4h2.22v-2.22h2.28v2.22h2.22v-2.22h2.28M39.75,153.34v-8.16h-11.22v8.16h11.22Z"/>
  <text class="cls-22" transform="translate(13.53 160.54)"><tspan class="cls-26" x="0" y="0">CO</tspan><tspan class="cls-2" x="8.33" y="0">M</tspan></text>
  <rect x="6.81" y="175.18" width=".06" height=".06"/>
  <line class="cls-4" x1="6.81" y1="168.4" x2="6.81" y2="175.18"/>
  <rect x="20.31" y="175.18" width=".06" height=".06"/>
  <line class="cls-4" x1="20.31" y1="168.4" x2="20.31" y2="175.18"/>
  <rect x="33.81" y="175.18" width=".06" height=".06"/>
  <line class="cls-4" x1="33.81" y1="168.4" x2="33.81" y2="175.18"/>
  <path class="cls-9" d="M48.75,195.34c0-.78-.66-1.44-1.5-1.44s-1.44.66-1.44,1.44c0,.84.6,1.5,1.44,1.5s1.5-.66,1.5-1.5Z"/>
  <path class="cls-4" d="M48.75,195.34c0-.78-.66-1.44-1.5-1.44s-1.44.66-1.44,1.44c0,.84.6,1.5,1.44,1.5s1.5-.66,1.5-1.5Z"/>
  <polyline class="cls-4" points="263.31 73.9 47.31 73.9 47.31 195.4 108.03 195.4"/>
  <polyline class="cls-4" points="6.81 175.18 6.81 195.4 47.31 195.4"/>
  <text class="cls-20" transform="translate(48.03 185.44)"><tspan class="cls-19" x="0" y="0">V</tspan><tspan class="cls-14" x="6.53" y="0">i</tspan><tspan x="9.41" y="0">n</tspan></text>
</svg>