<?xml version="1.0" encoding="UTF-8"?>
<svg id="Layer_1" data-name="Layer 1" xmlns="http://www.w3.org/2000/svg" viewBox="0 0 315.38 254.63">
  <defs>
    <style>
      .cls-1 {
        letter-spacing: 0em;
      }

      .cls-2 {
        letter-spacing: .01em;
      }

      .cls-3 {
        stroke-width: .75px;
      }

      .cls-3, .cls-4 {
        fill: none;
        stroke: #000;
        stroke-linecap: round;
        stroke-linejoin: round;
      }

      .cls-5 {
        letter-spacing: -.03em;
      }

      .cls-6, .cls-7 {
        fill: #fff;
      }

      .cls-8 {
        letter-spacing: .01em;
      }

      .cls-9 {
        letter-spacing: 0em;
      }

      .cls-7, .cls-10 {
        fill-rule: evenodd;
      }

      .cls-11 {
        letter-spacing: .02em;
      }

      .cls-12 {
        letter-spacing: 0em;
      }

      .cls-13 {
        letter-spacing: 0em;
      }

      .cls-14 {
        letter-spacing: .02em;
      }

      .cls-15 {
        font-family: ArialMT, Arial;
        font-size: 5.28px;
      }

      .cls-16 {
        letter-spacing: .03em;
      }

      .cls-17 {
        letter-spacing: .02em;
      }

      .cls-18 {
        letter-spacing: 0em;
      }

      .cls-19 {
        letter-spacing: -.06em;
      }

      .cls-20 {
        letter-spacing: .01em;
      }

      .cls-21 {
        letter-spacing: .02em;
      }

      .cls-22 {
        letter-spacing: .01em;
      }

      .cls-23 {
        letter-spacing: .01em;
      }

      .cls-24 {
        letter-spacing: 0em;
      }

      .cls-25 {
        font-family: Arial-BoldMT, Arial;
        font-size: 9.78px;
        font-weight: 700;
      }

      .cls-26 {
        letter-spacing: 0em;
      }

      .cls-27 {
        letter-spacing: .03em;
      }

      .cls-4 {
        stroke-width: .06px;
      }

      .cls-28 {
        letter-spacing: 0em;
      }

      .cls-29 {
        letter-spacing: 0em;
      }

      .cls-30 {
        letter-spacing: 0em;
      }

      .cls-31 {
        letter-spacing: 0em;
      }

      .cls-32 {
        letter-spacing: .05em;
      }
    </style>
  </defs>
  <polygon class="cls-3" points="173.28 189.03 173.28 148.53 213.78 168.75 173.28 189.03"/>
  <line class="cls-3" x1="186.78" y1="148.53" x2="186.78" y2="155.25"/>
  <line class="cls-3" x1="186.78" y1="189.03" x2="186.78" y2="182.25"/>
  <line class="cls-3" x1="180" y1="157.53" x2="175.5" y2="157.53"/>
  <line class="cls-3" x1="175.5" y1="180.03" x2="180" y2="180.03"/>
  <line class="cls-3" x1="177.78" y1="182.25" x2="177.78" y2="177.75"/>
  <rect x="159.78" y="182.25" width=".06" height=".06"/>
  <line class="cls-3" x1="173.28" y1="182.25" x2="159.78" y2="182.25"/>
  <rect x="159.78" y="155.25" width=".06" height=".06"/>
  <line class="cls-3" x1="173.28" y1="155.25" x2="159.78" y2="155.25"/>
  <rect x="186.78" y="135.03" width=".06" height=".06"/>
  <line class="cls-3" x1="186.78" y1="148.53" x2="186.78" y2="135.03"/>
  <rect x="186.78" y="202.53" width=".06" height=".06"/>
  <line class="cls-3" x1="186.78" y1="189.03" x2="186.78" y2="202.53"/>
  <rect x="227.28" y="168.75" width=".06" height=".06"/>
  <line class="cls-3" x1="213.78" y1="168.75" x2="227.28" y2="168.75"/>
  <text class="cls-25" transform="translate(88.92 146.79)"><tspan class="cls-14" x="0" y="0">R</tspan><tspan class="cls-12" x="7.26" y="0">1</tspan></text>
  <polyline class="cls-3" points="85.5 155.25 87.78 151.53 90.78 158.25 94.5 151.53 97.5 158.25 101.28 151.53 104.28 158.25 105.78 155.25"/>
  <text class="cls-25" transform="translate(85.62 168.57)"><tspan class="cls-16" x="0" y="0">1</tspan><tspan class="cls-12" x="5.69" y="0">k</tspan></text>
  <text class="cls-25" transform="translate(96.95 168.57)"><tspan x="0" y="0">Ω</tspan></text>
  <rect x="112.5" y="155.25" width=".06" height=".06"/>
  <line class="cls-3" x1="105.78" y1="155.25" x2="112.5" y2="155.25"/>
  <rect x="78.78" y="155.25" width=".06" height=".06"/>
  <line class="cls-3" x1="85.5" y1="155.25" x2="78.78" y2="155.25"/>
  <text class="cls-25" transform="translate(183.42 72.57)"><tspan class="cls-14" x="0" y="0">R</tspan><tspan class="cls-12" x="7.26" y="0">2</tspan></text>
  <polyline class="cls-3" points="180 81.03 182.28 77.25 185.28 84.03 189 77.25 192 84.03 195.78 77.25 198.78 84.03 200.28 81.03"/>
  <rect x="207" y="81.03" width=".06" height=".06"/>
  <text class="cls-25" transform="translate(177.3 94.29)"><tspan class="cls-16" x="0" y="0">4</tspan><tspan class="cls-21" x="5.69" y="0">7</tspan><tspan class="cls-12" x="11.33" y="0">k</tspan></text>
  <text class="cls-25" transform="translate(194.28 94.29)"><tspan x="0" y="0">Ω</tspan></text>
  <line class="cls-3" x1="200.28" y1="81.03" x2="207" y2="81.03"/>
  <rect x="173.28" y="81.03" width=".06" height=".06"/>
  <line class="cls-3" x1="180" y1="81.03" x2="173.28" y2="81.03"/>
  <path class="cls-10" d="M134.22,155.19c0-.78-.66-1.44-1.5-1.44s-1.44.66-1.44,1.44c0,.84.6,1.5,1.44,1.5s1.5-.66,1.5-1.5Z"/>
  <path class="cls-3" d="M134.22,155.19c0-.78-.66-1.44-1.5-1.44s-1.44.66-1.44,1.44c0,.84.6,1.5,1.44,1.5s1.5-.66,1.5-1.5Z"/>
  <text class="cls-25" transform="translate(177.78 226.29)"><tspan class="cls-27" x="0" y="0">1</tspan><tspan class="cls-14" x="5.69" y="0">5</tspan><tspan x="11.33" y="0">V</tspan></text>
  <line class="cls-4" x1="200.28" y1="216.03" x2="173.28" y2="216.03"/>
  <rect x="186.78" y="202.53" width=".06" height=".06"/>
  <line class="cls-3" x1="186.78" y1="216.03" x2="186.78" y2="202.53"/>
  <line class="cls-4" x1="173.28" y1="121.53" x2="200.28" y2="121.53"/>
  <text class="cls-25" transform="translate(174.78 117.57)"><tspan class="cls-23" x="0" y="0">-15</tspan><tspan x="14.55" y="0">V</tspan></text>
  <rect x="186.78" y="135.03" width=".06" height=".06"/>
  <line class="cls-3" x1="186.78" y1="121.53" x2="186.78" y2="135.03"/>
  <rect class="cls-6" x="234.06" y=".09" width="74.16" height="53.88"/>
  <path class="cls-4" d="M308.22.03,308.22,53.97V.03h-74.22v53.94h74.22Z"/>
  <rect class="cls-6" x="236.34" y="2.31" width="47.1" height="33.66"/>
  <path class="cls-4" d="M258.72,20.25c0-9.54-4.38-17.22-9.72-17.22s-9.72,7.68-9.72,17.22M258.72,20.25c0-6.24-4.38-11.22-9.72-11.22s-9.72,4.98-9.72,11.22M283.44,35.97V2.25h-47.16v33.72h47.16Z"/>
  <text class="cls-15" transform="translate(239.16 43.71)"><tspan x="0" y="0">A</tspan></text>
  <text class="cls-15" transform="translate(266.16 42.99)"><tspan x="0" y="0">B</tspan></text>
  <path class="cls-4" d="M258.78,17.97c0,6.18,4.32,11.22,9.72,11.22s9.72-5.04,9.72-11.22"/>
  <path class="cls-4" d="M258.78,17.97c0,9.48,4.32,17.22,9.72,17.22s9.72-7.74,9.72-17.22"/>
  <path class="cls-7" d="M270.72,47.97c0-1.62-1.38-2.94-3-2.94s-2.94,1.32-2.94,2.94,1.32,3,2.94,3,3-1.38,3-3Z"/>
  <path class="cls-4" d="M270.72,47.97c0-1.62-1.38-2.94-3-2.94s-2.94,1.32-2.94,2.94,1.32,3,2.94,3,3-1.38,3-3Z"/>
  <path class="cls-7" d="M243.72,47.97c0-1.62-1.38-2.94-3-2.94s-2.94,1.32-2.94,2.94,1.32,3,2.94,3,3-1.38,3-3Z"/>
  <path class="cls-4" d="M243.72,47.97c0-1.62-1.38-2.94-3-2.94s-2.94,1.32-2.94,2.94,1.32,3,2.94,3,3-1.38,3-3Z"/>
  <path class="cls-7" d="M304.44,26.97c0-1.62-1.38-2.94-3-2.94s-2.94,1.32-2.94,2.94,1.32,3,2.94,3,3-1.38,3-3Z"/>
  <path class="cls-4" d="M304.44,26.97c0-1.62-1.38-2.94-3-2.94s-2.94,1.32-2.94,2.94,1.32,3,2.94,3,3-1.38,3-3Z"/>
  <text class="cls-15" transform="translate(288.66 20.49)"><tspan class="cls-20" x="0" y="0">E</tspan><tspan x="3.6" y="0">x</tspan><tspan class="cls-29" x="6.24" y="0">t</tspan><tspan class="cls-32" x="7.68" y="0"> </tspan><tspan class="cls-5" x="9.42" y="0">T</tspan><tspan class="cls-28" x="12.48" y="0">r</tspan><tspan class="cls-30" x="14.22" y="0">i</tspan><tspan class="cls-1" x="15.42" y="0">g</tspan></text>
  <line class="cls-3" x1="267.78" y1="48.03" x2="267.78" y2="54.03"/>
  <line class="cls-3" x1="240.78" y1="49.53" x2="240.78" y2="54.03"/>
  <line class="cls-3" x1="308.28" y1="27.03" x2="302.28" y2="27.03"/>
  <polyline class="cls-3" points="243.78 48.03 247.5 48.03 247.5 54.03"/>
  <polyline class="cls-3" points="270.78 48.03 274.5 48.03 274.5 54.03"/>
  <polyline class="cls-3" points="301.5 30.03 301.5 33.75 308.28 33.75"/>
  <path class="cls-10" d="M242.22,47.97c0-.78-.66-1.44-1.5-1.44s-1.44.66-1.44,1.44c0,.84.6,1.5,1.44,1.5s1.5-.66,1.5-1.5Z"/>
  <path class="cls-4" d="M242.22,47.97c0-.78-.66-1.44-1.5-1.44s-1.44.66-1.44,1.44c0,.84.6,1.5,1.44,1.5s1.5-.66,1.5-1.5Z"/>
  <path class="cls-10" d="M269.22,47.97c0-.78-.66-1.44-1.5-1.44s-1.44.66-1.44,1.44c0,.84.6,1.5,1.44,1.5s1.5-.66,1.5-1.5Z"/>
  <path class="cls-4" d="M269.22,47.97c0-.78-.66-1.44-1.5-1.44s-1.44.66-1.44,1.44c0,.84.6,1.5,1.44,1.5s1.5-.66,1.5-1.5Z"/>
  <path class="cls-10" d="M302.94,26.97c0-.78-.66-1.44-1.5-1.44s-1.44.66-1.44,1.44c0,.84.6,1.5,1.44,1.5s1.5-.66,1.5-1.5Z"/>
  <path class="cls-4" d="M302.94,26.97c0-.78-.66-1.44-1.5-1.44s-1.44.66-1.44,1.44c0,.84.6,1.5,1.44,1.5s1.5-.66,1.5-1.5Z"/>
  <text class="cls-15" transform="translate(304.5 26.49)"><tspan x="0" y="0">+</tspan></text>
  <text class="cls-15" transform="translate(235.5 52.71)"><tspan x="0" y="0">+</tspan></text>
  <text class="cls-15" transform="translate(303.66 35.49)"><tspan x="0" y="0">_</tspan></text>
  <text class="cls-15" transform="translate(249 50.49)"><tspan x="0" y="0">_</tspan></text>
  <text class="cls-15" transform="translate(262.5 52.71)"><tspan x="0" y="0">+</tspan></text>
  <text class="cls-15" transform="translate(276 50.49)"><tspan x="0" y="0">_</tspan></text>
  <rect x="240.78" y="60.75" width=".06" height=".06"/>
  <line class="cls-3" x1="240.78" y1="54.03" x2="240.78" y2="60.75"/>
  <rect x="267.78" y="60.75" width=".06" height=".06"/>
  <line class="cls-3" x1="267.78" y1="54.03" x2="267.78" y2="60.75"/>
  <rect x="247.5" y="60.75" width=".06" height=".06"/>
  <line class="cls-3" x1="247.5" y1="54.03" x2="247.5" y2="60.75"/>
  <rect x="315" y="27.03" width=".06" height=".06"/>
  <line class="cls-3" x1="308.28" y1="27.03" x2="315" y2="27.03"/>
  <rect x="274.5" y="60.75" width=".06" height=".06"/>
  <line class="cls-3" x1="274.5" y1="54.03" x2="274.5" y2="60.75"/>
  <rect x="315" y="33.75" width=".06" height=".06"/>
  <line class="cls-3" x1="308.28" y1="33.75" x2="315" y2="33.75"/>
  <polyline class="cls-3" points="112.5 155.25 132.78 155.25 159.78 155.25"/>
  <polyline class="cls-3" points="173.28 81.03 132.78 81.03 132.78 155.25"/>
  <line class="cls-3" x1="186.78" y1="202.53" x2="186.78" y2="202.53"/>
  <line class="cls-3" x1="186.78" y1="135.03" x2="186.78" y2="135.03"/>
  <path class="cls-10" d="M248.94,168.69c0-.78-.66-1.44-1.5-1.44s-1.44.66-1.44,1.44c0,.84.6,1.5,1.44,1.5s1.5-.66,1.5-1.5Z"/>
  <path class="cls-3" d="M248.94,168.69c0-.78-.66-1.44-1.5-1.44s-1.44.66-1.44,1.44c0,.84.6,1.5,1.44,1.5s1.5-.66,1.5-1.5Z"/>
  <polyline class="cls-3" points="227.28 168.75 247.5 168.75 247.5 81.03 207 81.03"/>
  <polyline class="cls-3" points="267.78 60.75 267.78 168.75 247.5 168.75"/>
  <text class="cls-25" transform="translate(237.78 185.79)"><tspan class="cls-19" x="0" y="0">V</tspan><tspan class="cls-22" x="5.95" y="0">ou</tspan><tspan x="18.19" y="0">t</tspan></text>
  <line class="cls-3" x1="240.78" y1="67.53" x2="254.28" y2="67.53"/>
  <line class="cls-3" x1="243" y1="69.75" x2="252" y2="69.75"/>
  <line class="cls-3" x1="245.28" y1="72.03" x2="249.78" y2="72.03"/>
  <rect x="247.5" y="60.75" width=".06" height=".06"/>
  <line class="cls-3" x1="247.5" y1="67.53" x2="247.5" y2="60.75"/>
  <line class="cls-3" x1="267.78" y1="67.53" x2="281.28" y2="67.53"/>
  <line class="cls-3" x1="270" y1="69.75" x2="279" y2="69.75"/>
  <line class="cls-3" x1="272.28" y1="72.03" x2="276.78" y2="72.03"/>
  <rect x="274.5" y="60.75" width=".06" height=".06"/>
  <line class="cls-3" x1="274.5" y1="67.53" x2="274.5" y2="60.75"/>
  <line class="cls-3" x1="58.5" y1="162.03" x2="72" y2="162.03"/>
  <line class="cls-3" x1="60.78" y1="164.25" x2="69.78" y2="164.25"/>
  <line class="cls-3" x1="63" y1="166.53" x2="67.5" y2="166.53"/>
  <rect x="65.28" y="155.25" width=".06" height=".06"/>
  <line class="cls-3" x1="65.28" y1="162.03" x2="65.28" y2="155.25"/>
  <text class="cls-25" transform="translate(39.78 195.57)"><tspan class="cls-31" x="0" y="0">Vi</tspan><tspan class="cls-11" x="9.3" y="0">n</tspan><tspan x="15.42" y="0">1</tspan></text>
  <text class="cls-25" transform="translate(39.78 209.07)"><tspan class="cls-21" x="0" y="0">0</tspan><tspan class="cls-18" x="5.63" y="0">.</tspan><tspan class="cls-8" x="8.39" y="0">3V</tspan><tspan class="cls-22" x="20.63" y="0">p</tspan><tspan class="cls-24" x="26.75" y="0">k</tspan><tspan class="cls-9" x="32.2" y="0"> </tspan></text>
  <text class="cls-25" transform="translate(39.78 220.28)"><tspan class="cls-14" x="0" y="0">8k</tspan><tspan class="cls-2" x="11.27" y="0">H</tspan><tspan class="cls-13" x="18.46" y="0">z</tspan><tspan class="cls-9" x="23.32" y="0"> </tspan></text>
  <line class="cls-3" x1="24.78" y1="204.75" x2="24.78" y2="209.25"/>
  <text class="cls-25" transform="translate(39.78 231.51)"><tspan class="cls-14" x="0" y="0">0</tspan><tspan class="cls-26" x="5.63" y="0">°</tspan><tspan x="9.54" y="0"> </tspan></text>
  <line class="cls-3" x1="22.5" y1="207.03" x2="27" y2="207.03"/>
  <line class="cls-3" x1="22.5" y1="225.03" x2="27" y2="225.03"/>
  <path class="cls-3" d="M38.22,215.97c0-7.44-6.06-13.44-13.5-13.44s-13.44,6-13.44,13.44,6,13.5,13.44,13.5,13.5-6.06,13.5-13.5Z"/>
  <path class="cls-3" d="M24.72,215.97c0-1.26-1.02-2.22-2.22-2.22-1.26,0-2.22.96-2.22,2.22"/>
  <path class="cls-3" d="M24.78,215.97c0,1.2.96,2.22,2.22,2.22s2.22-1.02,2.22-2.22"/>
  <rect x="24.78" y="195.75" width=".06" height=".06"/>
  <line class="cls-3" x1="24.78" y1="202.53" x2="24.78" y2="195.75"/>
  <rect x="24.78" y="236.25" width=".06" height=".06"/>
  <line class="cls-3" x1="24.78" y1="229.53" x2="24.78" y2="236.25"/>
  <line class="cls-3" x1="18" y1="249.75" x2="31.5" y2="249.75"/>
  <line class="cls-3" x1="20.28" y1="252.03" x2="29.28" y2="252.03"/>
  <line class="cls-3" x1="22.5" y1="254.25" x2="27" y2="254.25"/>
  <rect x="24.78" y="243.03" width=".06" height=".06"/>
  <polyline class="cls-3" points="24.78 249.75 24.78 243.03 24.78 236.25"/>
  <line class="cls-3" x1="78.78" y1="155.25" x2="65.28" y2="155.25"/>
  <path class="cls-10" d="M26.22,182.19c0-.78-.66-1.44-1.5-1.44s-1.44.66-1.44,1.44c0,.84.6,1.5,1.44,1.5s1.5-.66,1.5-1.5Z"/>
  <path class="cls-3" d="M26.22,182.19c0-.78-.66-1.44-1.5-1.44s-1.44.66-1.44,1.44c0,.84.6,1.5,1.44,1.5s1.5-.66,1.5-1.5Z"/>
  <polyline class="cls-3" points="24.78 195.75 24.78 182.25 159.78 182.25"/>
  <polyline class="cls-3" points="240.78 60.75 24.78 60.75 24.78 182.25"/>
  <text class="cls-25" transform="translate(0 180.57)"><tspan class="cls-24" x="0" y="0">V</tspan><tspan class="cls-17" x="6.53" y="0">i</tspan><tspan x="9.41" y="0">n</tspan></text>
</svg>