<?xml version="1.0" encoding="UTF-8"?>
<svg id="Layer_1" xmlns="http://www.w3.org/2000/svg" version="1.1" viewBox="0 0 205.28 106.47">
  <!-- Generator: Adobe Illustrator 29.1.0, SVG Export Plug-In . SVG Version: 2.1.0 Build 142)  -->
  <defs>
    <style>
      .st0 {
        letter-spacing: .02em;
      }

      .st1 {
        fill: none;
        stroke: #000;
        stroke-linecap: round;
        stroke-linejoin: round;
        stroke-width: .75px;
      }

      .st2 {
        letter-spacing: 0em;
      }

      .st3 {
        letter-spacing: 0em;
      }

      .st4 {
        letter-spacing: .02em;
      }

      .st5 {
        font-family: Arial-BoldMT, Arial;
        font-size: 9.78px;
        font-weight: 700;
      }

      .st6 {
        fill-rule: evenodd;
      }

      .st7 {
        letter-spacing: .02em;
      }

      .st8 {
        letter-spacing: .03em;
      }

      .st9 {
        letter-spacing: .02em;
      }
    </style>
  </defs>
  <polygon class="st1" points="78.78 92.04 92.28 92.04 85.56 98.76 78.78 92.04"/>
  <rect x="85.56" y="85.26" width=".06" height=".06"/>
  <line class="st1" x1="85.56" y1="92.04" x2="85.56" y2="85.26"/>
  <text class="st5" transform="translate(33.06 37.8)"><tspan class="st4" x="0" y="0">V</tspan><tspan x="6.72" y="0">1</tspan></text>
  <line class="st1" x1="18.06" y1="47.04" x2="18.06" y2="51.54"/>
  <line class="st1" x1="15.78" y1="49.26" x2="20.28" y2="49.26"/>
  <line class="st1" x1="15.78" y1="67.26" x2="20.28" y2="67.26"/>
  <path class="st1" d="M31.5,58.2c0-7.44-6.06-13.44-13.5-13.44-7.44,0-13.44,6-13.44,13.44s6,13.5,13.44,13.5c7.44,0,13.5-6.06,13.5-13.5Z"/>
  <text class="st5" transform="translate(33.06 51.3)"><tspan class="st4" x="0" y="0">1</tspan><tspan x="5.63" y="0">0</tspan></text>
  <text class="st5" transform="translate(44.33 51.3)"><tspan class="st4" x="0" y="0">V</tspan><tspan x="6.72" y="0">p</tspan></text>
  <text class="st5" transform="translate(57.22 51.3)"><tspan class="st4" x="0" y="0">-</tspan><tspan class="st3" x="3.45" y="0">p</tspan></text>
  <path class="st1" d="M18,58.26c0-1.26-1.02-2.22-2.22-2.22-1.26,0-2.22.96-2.22,2.22"/>
  <path class="st1" d="M18.06,58.26c0,1.2.96,2.22,2.22,2.22s2.22-1.02,2.22-2.22"/>
  <rect x="18.06" y="38.04" width=".06" height=".06"/>
  <line class="st1" x1="18.06" y1="44.76" x2="18.06" y2="38.04"/>
  <rect x="18.06" y="78.54" width=".06" height=".06"/>
  <line class="st1" x1="18.06" y1="71.76" x2="18.06" y2="78.54"/>
  <text class="st5" transform="translate(88.86 16.08)"><tspan class="st8" x="0" y="0">R</tspan><tspan class="st2" x="7.32" y="0">1</tspan></text>
  <polyline class="st1" points="85.56 24.54 87.78 20.76 90.78 27.54 94.56 20.76 97.56 27.54 101.28 20.76 104.28 27.54 105.78 24.54"/>
  <text class="st5" transform="translate(85.68 37.8)"><tspan class="st4" x="0" y="0">1</tspan><tspan x="5.63" y="0">k</tspan></text>
  <text class="st5" transform="translate(96.95 37.8)"><tspan x="0" y="0">Ω</tspan></text>
  <rect x="112.56" y="24.54" width=".06" height=".06"/>
  <line class="st1" x1="105.78" y1="24.54" x2="112.56" y2="24.54"/>
  <rect x="78.78" y="24.54" width=".06" height=".06"/>
  <line class="st1" x1="85.56" y1="24.54" x2="78.78" y2="24.54"/>
  <polyline class="st1" points="18.06 38.04 18.06 24.54 78.78 24.54"/>
  <text class="st5" transform="translate(171.06 45.3)"><tspan class="st9" x="0" y="0">L</tspan><tspan class="st2" x="6.18" y="0">1</tspan></text>
  <text class="st5" transform="translate(171.06 57.3)"><tspan class="st7" x="0" y="0">3</tspan><tspan class="st0" x="5.62" y="0">.</tspan><tspan class="st7" x="8.52" y="0">9m</tspan><tspan x="23.01" y="0">H</tspan></text>
  <path class="st1" d="M166.5,49.98c1.62,0,3-1.02,3-2.22s-1.38-2.22-3-2.22"/>
  <path class="st1" d="M166.5,54.48c1.62,0,3-1.02,3-2.22,0-1.26-1.38-2.22-3-2.22"/>
  <path class="st1" d="M166.5,58.98c1.62,0,3-1.02,3-2.22,0-1.26-1.38-2.22-3-2.22"/>
  <path class="st1" d="M166.5,63.48c1.62,0,3-1.02,3-2.22,0-1.26-1.38-2.22-3-2.22"/>
  <line class="st1" x1="166.56" y1="44.76" x2="166.56" y2="45.54"/>
  <line class="st1" x1="166.56" y1="65.04" x2="166.56" y2="63.54"/>
  <rect x="166.56" y="38.04" width=".06" height=".06"/>
  <line class="st1" x1="166.56" y1="44.76" x2="166.56" y2="38.04"/>
  <rect x="166.56" y="71.76" width=".06" height=".06"/>
  <line class="st1" x1="166.56" y1="65.04" x2="166.56" y2="71.76"/>
  <polyline class="st1" points="112.56 24.54 166.56 24.54 166.56 38.04"/>
  <path class="st6" d="M87,85.2c0-.78-.66-1.44-1.5-1.44s-1.44.66-1.44,1.44c0,.84.6,1.5,1.44,1.5s1.5-.66,1.5-1.5Z"/>
  <path class="st1" d="M87,85.2c0-.78-.66-1.44-1.5-1.44s-1.44.66-1.44,1.44c0,.84.6,1.5,1.44,1.5s1.5-.66,1.5-1.5Z"/>
  <polyline class="st1" points="18.06 78.54 18.06 85.26 85.56 85.26"/>
  <polyline class="st1" points="166.56 71.76 166.56 85.26 85.56 85.26"/>
</svg>