<?xml version="1.0" encoding="UTF-8"?>
<svg id="Layer_1" xmlns="http://www.w3.org/2000/svg" version="1.1" viewBox="0 0 197.1 91.4">
  <!-- Generator: Adobe Illustrator 29.1.0, SVG Export Plug-In . SVG Version: 2.1.0 Build 142)  -->
  <defs>
    <style>
      .st0, .st1 {
        isolation: isolate;
      }

      .st2 {
        stroke-width: .8px;
      }

      .st2, .st3 {
        fill: none;
        stroke: #000;
        stroke-linecap: round;
        stroke-linejoin: round;
      }

      .st3 {
        stroke-width: 1.5px;
      }

      .st4 {
        fill-rule: evenodd;
      }

      .st1 {
        font-family: Arial-BoldMT, Arial;
        font-size: 9.8px;
        font-weight: 700;
      }
    </style>
  </defs>
  <g class="st0">
    <g class="st0">
      <g class="st0">
        <text class="st1" transform="translate(171.4 37.6)"><tspan x="0" y="0">C</tspan></text>
      </g>
    </g>
    <g class="st0">
      <g class="st0">
        <text class="st1" transform="translate(178.6 37.6)"><tspan x="0" y="0">1</tspan></text>
      </g>
    </g>
  </g>
  <line class="st3" x1="155.6" y1="45.3" x2="169.1" y2="45.3"/>
  <line class="st3" x1="155.6" y1="49.1" x2="169.1" y2="49.1"/>
  <g class="st0">
    <g class="st0">
      <g class="st0">
        <text class="st1" transform="translate(171.4 49.6)"><tspan x="0" y="0">0</tspan></text>
      </g>
    </g>
    <g class="st0">
      <g class="st0">
        <text class="st1" transform="translate(177 49.6)"><tspan x="0" y="0">.</tspan></text>
      </g>
    </g>
    <g class="st0">
      <g class="st0">
        <text class="st1" transform="translate(179.8 49.6)"><tspan x="0" y="0">1</tspan></text>
      </g>
    </g>
    <g class="st0">
      <g class="st0">
        <text class="st1" transform="translate(185.3 49.6)"><tspan x="0" y="0">µ</tspan></text>
      </g>
    </g>
    <g class="st0">
      <g class="st0">
        <text class="st1" transform="translate(191.1 49.6)"><tspan x="0" y="0">F</tspan></text>
      </g>
    </g>
  </g>
  <line class="st2" x1="162.4" y1="49.8" x2="162.4" y2="57.3"/>
  <line class="st2" x1="162.4" y1="37.1" x2="162.4" y2="44.6"/>
  <polygon points="162.4 64.1 162.4 64.1 162.4 64.1 162.4 64.1"/>
  <line class="st2" x1="162.4" y1="57.3" x2="162.4" y2="64.1"/>
  <polygon points="162.4 30.4 162.4 30.4 162.4 30.4 162.4 30.4"/>
  <line class="st2" x1="162.4" y1="37.1" x2="162.4" y2="30.4"/>
  <polygon class="st2" points="81.4 84.3 94.9 84.3 88.1 91.1 81.4 84.3"/>
  <polygon points="88.1 77.6 88.1 77.6 88.1 77.6 88.1 77.6"/>
  <line class="st2" x1="88.1" y1="84.3" x2="88.1" y2="77.6"/>
  <g class="st0">
    <g class="st0">
      <g class="st0">
        <text class="st1" transform="translate(28.9 30.1)"><tspan x="0" y="0">V</tspan></text>
      </g>
    </g>
    <g class="st0">
      <g class="st0">
        <text class="st1" transform="translate(35.6 30.1)"><tspan x="0" y="0">1</tspan></text>
      </g>
    </g>
  </g>
  <line class="st2" x1="13.9" y1="39.3" x2="13.9" y2="43.8"/>
  <line class="st2" x1="11.6" y1="41.6" x2="16.1" y2="41.6"/>
  <line class="st2" x1="11.6" y1="59.6" x2="16.1" y2="59.6"/>
  <path class="st2" d="M27.3,50.5c0-7.4-6.1-13.4-13.5-13.4S.4,43.1.4,50.5s6,13.5,13.4,13.5,13.5-6.1,13.5-13.5Z"/>
  <path class="st2" d="M13.8,50.6c0-1.3-1-2.2-2.2-2.2s-2.2,1-2.2,2.2"/>
  <g class="st0">
    <g class="st0">
      <g class="st0">
        <text class="st1" transform="translate(27.3 43.6)"><tspan x="0" y="0">10Vp-p</tspan></text>
      </g>
    </g>
  </g>
  <path class="st2" d="M13.9,50.6c0,1.2,1,2.2,2.2,2.2s2.2-1,2.2-2.2"/>
  <polygon points="13.9 30.4 13.9 30.4 13.9 30.4 13.9 30.4"/>
  <line class="st2" x1="13.9" y1="37.1" x2="13.9" y2="30.4"/>
  <polygon points="13.9 70.8 13.9 70.8 13.9 70.8 13.9 70.8"/>
  <line class="st2" x1="13.9" y1="64.1" x2="13.9" y2="70.8"/>
  <g class="st0">
    <g class="st0">
      <g class="st0">
        <text class="st1" transform="translate(84.7 8.4)"><tspan x="0" y="0">R</tspan></text>
      </g>
    </g>
    <g class="st0">
      <g class="st0">
        <text class="st1" transform="translate(92 8.4)"><tspan x="0" y="0">1</tspan></text>
      </g>
    </g>
  </g>
  <polyline class="st2" points="81.4 16.9 83.6 13.1 86.6 19.9 90.4 13.1 93.4 19.9 97.1 13.1 100.1 19.9 101.6 16.9"/>
  <g class="st0">
    <g class="st0">
      <g class="st0">
        <text class="st1" transform="translate(81.5 30.1)"><tspan x="0" y="0">1</tspan></text>
      </g>
    </g>
    <g class="st0">
      <g class="st0">
        <text class="st1" transform="translate(87.1 30.1)"><tspan x="0" y="0">k</tspan></text>
      </g>
    </g>
  </g>
  <g class="st0">
    <g class="st0">
      <g class="st0">
        <text class="st1" transform="translate(92.8 30.1)"><tspan x="0" y="0">Ω</tspan></text>
      </g>
    </g>
  </g>
  <polygon points="108.4 16.9 108.4 16.9 108.4 16.9 108.4 16.9"/>
  <line class="st2" x1="101.6" y1="16.9" x2="108.4" y2="16.9"/>
  <polygon points="74.6 16.9 74.6 16.9 74.6 16.9 74.6 16.9"/>
  <line class="st2" x1="81.4" y1="16.9" x2="74.6" y2="16.9"/>
  <polyline class="st2" points="13.9 30.4 13.9 16.9 74.6 16.9"/>
  <polyline class="st2" points="108.4 16.9 162.4 16.9 162.4 30.4"/>
  <path class="st4" d="M89.5,77.5c0-.8-.7-1.4-1.5-1.4s-1.4.7-1.4,1.4.6,1.5,1.4,1.5,1.5-.7,1.5-1.5Z"/>
  <path class="st2" d="M89.5,77.5c0-.8-.7-1.4-1.5-1.4s-1.4.7-1.4,1.4.6,1.5,1.4,1.5,1.5-.7,1.5-1.5Z"/>
  <polyline class="st2" points="162.4 64.1 162.4 77.6 88.1 77.6 13.9 77.6 13.9 70.8"/>
  <line class="st2" x1="88.1" y1="77.6" x2="88.1" y2="77.6"/>
</svg>