<?xml version="1.0" encoding="UTF-8"?>
<svg id="Layer_1" data-name="Layer 1" xmlns="http://www.w3.org/2000/svg" viewBox="0 0 207.04 113.23">
  <defs>
    <style>
      .cls-1 {
        stroke-width: .75px;
      }

      .cls-1, .cls-2 {
        fill: none;
        stroke: #000;
        stroke-linecap: round;
        stroke-linejoin: round;
      }

      .cls-3 {
        letter-spacing: .01em;
      }

      .cls-4 {
        letter-spacing: 0em;
      }

      .cls-5 {
        letter-spacing: .02em;
      }

      .cls-6 {
        letter-spacing: .03em;
      }

      .cls-7 {
        letter-spacing: .02em;
      }

      .cls-8 {
        letter-spacing: .01em;
      }

      .cls-2 {
        stroke-width: 1.5px;
      }

      .cls-9 {
        letter-spacing: 0em;
      }

      .cls-10 {
        font-family: Arial-BoldMT, Arial;
        font-size: 9.78px;
        font-weight: 700;
      }

      .cls-11 {
        fill-rule: evenodd;
      }

      .cls-12 {
        letter-spacing: .03em;
      }

      .cls-13 {
        letter-spacing: .02em;
      }
    </style>
  </defs>
  <polygon class="cls-1" points="81.38 106.07 94.88 106.07 88.09 112.85 81.38 106.07"/>
  <rect x="88.1" y="99.35" width=".06" height=".06"/>
  <line class="cls-1" x1="88.1" y1="106.07" x2="88.1" y2="99.35"/>
  <text class="cls-10" transform="translate(178.1 52.61)"><tspan class="cls-12" x="0" y="0">C</tspan><tspan class="cls-4" x="7.32" y="0">1</tspan></text>
  <line class="cls-2" x1="162.38" y1="60.35" x2="175.88" y2="60.35"/>
  <line class="cls-2" x1="162.38" y1="64.07" x2="175.88" y2="64.07"/>
  <text class="cls-10" transform="translate(178.1 64.61)"><tspan class="cls-7" x="0" y="0">10</tspan><tspan class="cls-3" x="11.27" y="0">0</tspan><tspan class="cls-8" x="16.85" y="0">n</tspan><tspan x="22.97" y="0">F</tspan></text>
  <line class="cls-1" x1="169.1" y1="64.85" x2="169.1" y2="72.35"/>
  <line class="cls-1" x1="169.1" y1="52.07" x2="169.1" y2="59.57"/>
  <rect x="169.1" y="79.07" width=".06" height=".06"/>
  <line class="cls-1" x1="169.1" y1="72.35" x2="169.1" y2="79.07"/>
  <rect x="169.1" y="45.35" width=".06" height=".06"/>
  <line class="cls-1" x1="169.1" y1="52.07" x2="169.1" y2="45.35"/>
  <text class="cls-10" transform="translate(78.01 9.89)"><tspan class="cls-5" x="0" y="0">R</tspan><tspan class="cls-4" x="7.26" y="0">1</tspan></text>
  <polyline class="cls-1" points="74.6 18.35 76.88 14.57 79.88 21.35 83.6 14.57 86.6 21.35 90.38 14.57 93.38 21.35 94.88 18.35"/>
  <text class="cls-10" transform="translate(74.72 31.61)"><tspan class="cls-6" x="0" y="0">1</tspan><tspan class="cls-4" x="5.69" y="0">k</tspan></text>
  <text class="cls-10" transform="translate(86.05 31.61)"><tspan x="0" y="0">Ω</tspan></text>
  <rect x="101.6" y="18.35" width=".06" height=".06"/>
  <line class="cls-1" x1="94.88" y1="18.35" x2="101.59" y2="18.35"/>
  <rect x="67.88" y="18.35" width=".06" height=".06"/>
  <line class="cls-1" x1="74.6" y1="18.35" x2="67.88" y2="18.35"/>
  <polyline class="cls-1" points="101.6 18.35 169.1 18.35 169.1 45.35"/>
  <text class="cls-10" transform="translate(127.09 8.39)"><tspan class="cls-13" x="0" y="0">ou</tspan><tspan x="12.36" y="0">t</tspan></text>
  <text class="cls-10" transform="translate(28.87 51.11)"><tspan class="cls-7" x="0" y="0">V</tspan><tspan x="6.72" y="0">1</tspan></text>
  <line class="cls-1" x1="13.88" y1="54.35" x2="13.88" y2="58.85"/>
  <text class="cls-10" transform="translate(28.87 75.83)"><tspan class="cls-7" x="0" y="0">0</tspan><tspan class="cls-9" x="5.63" y="0">s</tspan><tspan x="11.08" y="0"> </tspan></text>
  <line class="cls-1" x1="11.6" y1="56.57" x2="16.1" y2="56.57"/>
  <path class="cls-1" d="M27.32,65.51c0-7.44-6.06-13.44-13.5-13.44S.38,58.07.38,65.51s6,13.5,13.44,13.5,13.5-6.06,13.5-13.5Z"/>
  <polyline class="cls-1" points="9.38 70.07 13.88 70.07 13.88 63.35 18.38 63.35 16.09 63.35"/>
  <rect x="13.88" y="45.35" width=".06" height=".06"/>
  <line class="cls-1" x1="13.88" y1="52.07" x2="13.88" y2="45.35"/>
  <rect x="13.88" y="85.85" width=".06" height=".06"/>
  <line class="cls-1" x1="13.88" y1="79.07" x2="13.88" y2="85.85"/>
  <polyline class="cls-1" points="67.88 18.35 13.88 18.35 13.88 45.35"/>
  <path class="cls-11" d="M89.54,99.29c0-.78-.66-1.44-1.5-1.44s-1.44.66-1.44,1.44c0,.84.6,1.5,1.44,1.5s1.5-.66,1.5-1.5Z"/>
  <path class="cls-1" d="M89.54,99.29c0-.78-.66-1.44-1.5-1.44s-1.44.66-1.44,1.44c0,.84.6,1.5,1.44,1.5s1.5-.66,1.5-1.5Z"/>
  <polyline class="cls-1" points="169.1 79.07 169.1 99.35 88.1 99.35"/>
  <polyline class="cls-1" points="13.88 85.85 13.88 99.35 88.1 99.35"/>
</svg>