<?xml version="1.0" encoding="UTF-8"?>
<svg id="Layer_1" xmlns="http://www.w3.org/2000/svg" version="1.1" viewBox="0 0 207 147">
  <!-- Generator: Adobe Illustrator 29.1.0, SVG Export Plug-In . SVG Version: 2.1.0 Build 142)  -->
  <defs>
    <style>
      .st0 {
        font-size: 6px;
      }

      .st0, .st1, .st2, .st3, .st4, .st5 {
        isolation: isolate;
      }

      .st0, .st1, .st2, .st3, .st5 {
        font-family: Arial-BoldMT, Arial;
        font-weight: 700;
      }

      .st6 {
        fill: none;
        stroke: #000;
        stroke-linecap: round;
        stroke-linejoin: round;
        stroke-width: .8px;
      }

      .st1, .st2, .st3, .st5 {
        font-size: 9.8px;
      }

      .st2 {
        letter-spacing: 0em;
      }

      .st3 {
        letter-spacing: 0em;
      }

      .st5 {
        letter-spacing: 0em;
      }
    </style>
  </defs>
  <g class="st4">
    <text class="st1" transform="translate(28.9 57.9)"><tspan x="0" y="0">V</tspan></text>
  </g>
  <g class="st4">
    <text class="st0" transform="translate(35.6 57.9)"><tspan x="0" y="0">s</tspan></text>
  </g>
  <g class="st4">
    <text class="st1" transform="translate(28.9 71.4)"><tspan x="0" y="0">0</tspan></text>
    <text class="st1" transform="translate(34.3 71.4)"><tspan x="0" y="0">V</tspan></text>
  </g>
  <g class="st4">
    <text class="st0" transform="translate(40.9 71.4)"><tspan x="0" y="0">1</tspan></text>
  </g>
  <g class="st4">
    <text class="st1" transform="translate(48.8 71.4)"><tspan x="0" y="0">10</tspan></text>
    <text class="st1" transform="translate(59.7 71.4)"><tspan x="0" y="0">V</tspan></text>
  </g>
  <g class="st4">
    <text class="st0" transform="translate(66.2 71.4)"><tspan x="0" y="0">2</tspan></text>
  </g>
  <line class="st6" x1="13.9" y1="61.1" x2="13.9" y2="65.6"/>
  <line class="st6" x1="11.6" y1="63.3" x2="16.1" y2="63.3"/>
  <path class="st6" d="M27.3,72.3c0-7.4-6.1-13.4-13.5-13.4S.4,64.8.4,72.3s6,13.5,13.4,13.5,13.5-6.1,13.5-13.5Z"/>
  <polyline class="st6" points="2.6 76.8 4.9 76.8 4.9 72.3 7.1 72.3 7.1 76.8 9.4 76.8 9.4 72.3 11.6 72.3 11.6 76.8 13.9 76.8 13.9 72.3 16.1 72.3 16.1 76.8 18.4 76.8 18.4 72.3 20.6 72.3 20.6 76.8 22.9 76.8 22.9 72.3 25.1 72.3"/>
  <rect x="13.9" y="52.1" width="0" height="0"/>
  <line class="st6" x1="13.9" y1="58.8" x2="13.9" y2="52.1"/>
  <rect x="13.9" y="92.6" width="0" height="0"/>
  <line class="st6" x1="13.9" y1="85.8" x2="13.9" y2="92.6"/>
  <polygon class="st6" points="7.1 139.9 20.6 139.9 13.9 146.6 7.1 139.9"/>
  <rect x="13.9" y="133.1" width="0" height="0"/>
  <line class="st6" x1="13.9" y1="139.9" x2="13.9" y2="133.1"/>
  <polygon class="st6" points="175.9 139.9 189.4 139.9 182.6 146.6 175.9 139.9"/>
  <rect x="182.6" y="133.1" width="0" height="0"/>
  <line class="st6" x1="182.6" y1="139.9" x2="182.6" y2="133.1"/>
  <g class="st4">
    <text class="st2" transform="translate(92 10.7)"><tspan x="0" y="0">L</tspan></text>
    <text class="st1" transform="translate(98.2 10.7)"><tspan x="0" y="0">1</tspan></text>
  </g>
  <g class="st4">
    <text class="st1" transform="translate(28.9 82.6)"><tspan x="0" y="0" xml:space="preserve">Pw    P</tspan></text>
    <text class="st1" transform="translate(60.5 82.6)"><tspan x="0" y="0">e</tspan></text>
    <text class="st1" transform="translate(66 82.6)"><tspan x="0" y="0">r</tspan></text>
  </g>
  <g class="st4">
    <text class="st1" transform="translate(28.9 94.3)"><tspan x="0" y="0">2</tspan></text>
    <text class="st1" transform="translate(34.3 94.3)"><tspan x="0" y="0">5</tspan></text>
  </g>
  <g class="st4">
    <text class="st1" transform="translate(39.8 94.3)"><tspan x="0" y="0">μ</tspan></text>
  </g>
  <g class="st4">
    <text class="st1" transform="translate(45.8 94.3)"><tspan x="0" y="0">s 5</tspan></text>
    <text class="st1" transform="translate(59.6 94.3)"><tspan x="0" y="0">0</tspan></text>
  </g>
  <g class="st4">
    <text class="st1" transform="translate(65.1 94.3)"><tspan x="0" y="0">μ</tspan></text>
  </g>
  <g class="st4">
    <text class="st1" transform="translate(71.1 94.3)"><tspan x="0" y="0">s</tspan></text>
  </g>
  <path class="st6" d="M107.5,18.3c0-1.6-1-2.9-2.2-2.9s-2.2,1.3-2.2,2.9"/>
  <path class="st6" d="M103,18.3c0-1.6-1-2.9-2.2-2.9s-2.2,1.3-2.2,2.9"/>
  <path class="st6" d="M98.5,18.3c0-1.6-1-2.9-2.2-2.9s-2.2,1.3-2.2,2.9"/>
  <g class="st4">
    <text class="st3" transform="translate(82.8 28.7)"><tspan x="0" y="0">3</tspan></text>
    <text class="st2" transform="translate(88.4 28.7)"><tspan x="0" y="0">.</tspan></text>
    <text class="st5" transform="translate(91.3 28.7)"><tspan x="0" y="0">9</tspan></text>
    <text class="st5" transform="translate(97 28.7)"><tspan x="0" y="0">m</tspan></text>
    <text class="st1" transform="translate(105.8 28.7)"><tspan x="0" y="0">H</tspan></text>
  </g>
  <path class="st6" d="M94,18.3c0-1.6-1-2.9-2.2-2.9s-2.2,1.3-2.2,2.9"/>
  <line class="st6" x1="108.4" y1="18.4" x2="107.6" y2="18.4"/>
  <line class="st6" x1="88.1" y1="18.4" x2="89.6" y2="18.4"/>
  <rect x="115.1" y="18.4" width="0" height="0"/>
  <line class="st6" x1="108.4" y1="18.4" x2="115.1" y2="18.4"/>
  <rect x="81.4" y="18.4" width="0" height="0"/>
  <line class="st6" x1="88.1" y1="18.4" x2="81.4" y2="18.4"/>
  <g class="st4">
    <text class="st2" transform="translate(187.9 59.4)"><tspan x="0" y="0">R</tspan></text>
    <text class="st1" transform="translate(195.1 59.4)"><tspan x="0" y="0">1</tspan></text>
  </g>
  <polyline class="st6" points="182.6 58.8 186.4 61.1 179.6 64.1 186.4 67.8 179.6 70.8 186.4 74.6 179.6 77.6 182.6 79.1"/>
  <g class="st4">
    <text class="st5" transform="translate(187.9 71.4)"><tspan x="0" y="0">1</tspan></text>
    <text class="st1" transform="translate(193.5 71.4)"><tspan x="0" y="0">k</tspan></text>
  </g>
  <g class="st4">
    <text class="st1" transform="translate(199.2 71.4)"><tspan x="0" y="0">Ω</tspan></text>
  </g>
  <rect x="182.6" y="85.8" width="0" height="0"/>
  <line class="st6" x1="182.6" y1="79.1" x2="182.6" y2="85.8"/>
  <rect x="182.6" y="52.1" width="0" height="0"/>
  <line class="st6" x1="182.6" y1="58.8" x2="182.6" y2="52.1"/>
  <line class="st6" x1="13.9" y1="92.6" x2="13.9" y2="133.1"/>
  <polyline class="st6" points="13.9 52.1 13.9 18.4 81.4 18.4"/>
  <polyline class="st6" points="115.1 18.4 182.6 18.4 182.6 52.1"/>
  <line class="st6" x1="182.6" y1="85.8" x2="182.6" y2="133.1"/>
</svg>