<?xml version="1.0" encoding="UTF-8"?>
<svg id="Layer_1" data-name="Layer 1" xmlns="http://www.w3.org/2000/svg" viewBox="0 0 190.16 113.23">
  <defs>
    <style>
      .cls-1 {
        letter-spacing: .02em;
      }

      .cls-2 {
        fill: none;
        stroke: #000;
        stroke-linecap: round;
        stroke-linejoin: round;
        stroke-width: .75px;
      }

      .cls-3 {
        letter-spacing: 0em;
      }

      .cls-4 {
        letter-spacing: .02em;
      }

      .cls-5 {
        letter-spacing: 0em;
      }

      .cls-6 {
        font-family: Arial-BoldMT, Arial;
        font-size: 9.78px;
        font-weight: 700;
      }

      .cls-7 {
        fill-rule: evenodd;
      }

      .cls-8 {
        letter-spacing: .02em;
      }

      .cls-9 {
        letter-spacing: .03em;
      }

      .cls-10 {
        letter-spacing: .03em;
      }
    </style>
  </defs>
  <text class="cls-6" transform="translate(28.87 37.67)"><tspan class="cls-4" x="0" y="0">V</tspan><tspan x="6.72" y="0">1</tspan></text>
  <line class="cls-2" x1="13.88" y1="40.85" x2="13.88" y2="45.35"/>
  <text class="cls-6" transform="translate(28.87 62.39)"><tspan class="cls-4" x="0" y="0">0</tspan><tspan class="cls-5" x="5.63" y="0">s</tspan><tspan x="11.08" y="0"> </tspan></text>
  <line class="cls-2" x1="11.6" y1="43.13" x2="16.1" y2="43.13"/>
  <path class="cls-2" d="M27.32,52.07c0-7.44-6.06-13.44-13.5-13.44S.38,44.63.38,52.07s6,13.5,13.44,13.5,13.5-6.06,13.5-13.5Z"/>
  <polyline class="cls-2" points="9.38 56.63 13.88 56.63 13.88 49.85 18.38 49.85 16.09 49.85"/>
  <rect x="13.88" y="31.85" width=".06" height=".06"/>
  <line class="cls-2" x1="13.88" y1="38.63" x2="13.88" y2="31.85"/>
  <rect x="13.88" y="72.35" width=".06" height=".06"/>
  <line class="cls-2" x1="13.88" y1="65.63" x2="13.88" y2="72.35"/>
  <polygon class="cls-2" points="81.38 106.13 94.88 106.13 88.09 112.85 81.38 106.13"/>
  <rect x="88.1" y="99.35" width=".06" height=".06"/>
  <line class="cls-2" x1="88.1" y1="106.13" x2="88.1" y2="99.35"/>
  <text class="cls-6" transform="translate(77.18 9.89)"><tspan class="cls-9" x="0" y="0">R</tspan><tspan class="cls-3" x="7.32" y="0">1</tspan></text>
  <polyline class="cls-2" points="94.88 18.35 92.59 22.13 89.59 15.35 85.88 22.13 82.88 15.35 79.09 22.13 76.09 15.35 74.59 18.35"/>
  <text class="cls-6" transform="translate(73.99 32.39)"><tspan class="cls-4" x="0" y="0">1</tspan><tspan x="5.63" y="0">k</tspan></text>
  <text class="cls-6" transform="translate(85.27 32.39)"><tspan x="0" y="0">Ω</tspan></text>
  <rect x="67.88" y="18.35" width=".06" height=".06"/>
  <line class="cls-2" x1="74.6" y1="18.35" x2="67.88" y2="18.35"/>
  <rect x="101.6" y="18.35" width=".06" height=".06"/>
  <line class="cls-2" x1="94.88" y1="18.35" x2="101.59" y2="18.35"/>
  <text class="cls-6" transform="translate(160.1 45.89)"><tspan class="cls-10" x="0" y="0">L</tspan><tspan x="6.24" y="0">1</tspan></text>
  <text class="cls-6" transform="translate(160.1 57.89)"><tspan class="cls-8" x="0" y="0">3</tspan><tspan class="cls-1" x="5.62" y="0">.</tspan><tspan class="cls-8" x="8.52" y="0">9m</tspan><tspan x="23.01" y="0">H</tspan></text>
  <path class="cls-2" d="M155.54,50.57c1.62,0,3-1.02,3-2.22,0-1.26-1.38-2.22-3-2.22"/>
  <path class="cls-2" d="M155.54,55.07c1.62,0,3-1.02,3-2.22,0-1.26-1.38-2.22-3-2.22"/>
  <path class="cls-2" d="M155.54,59.57c1.62,0,3-1.02,3-2.22,0-1.26-1.38-2.22-3-2.22"/>
  <path class="cls-2" d="M155.54,64.07c1.62,0,3-1.02,3-2.22,0-1.26-1.38-2.22-3-2.22"/>
  <line class="cls-2" x1="155.6" y1="45.35" x2="155.6" y2="46.13"/>
  <line class="cls-2" x1="155.6" y1="65.63" x2="155.6" y2="64.13"/>
  <rect x="155.6" y="38.63" width=".06" height=".06"/>
  <line class="cls-2" x1="155.6" y1="45.35" x2="155.6" y2="38.63"/>
  <rect x="155.6" y="72.35" width=".06" height=".06"/>
  <line class="cls-2" x1="155.6" y1="65.63" x2="155.6" y2="72.35"/>
  <polyline class="cls-2" points="13.88 31.85 13.88 18.35 67.88 18.35"/>
  <text class="cls-6" transform="translate(37.1 8.39)"><tspan x="0" y="0">+</tspan></text>
  <path class="cls-7" d="M89.54,92.57c0-.78-.66-1.44-1.5-1.44s-1.44.66-1.44,1.44c0,.84.6,1.5,1.44,1.5s1.5-.66,1.5-1.5Z"/>
  <path class="cls-2" d="M89.54,92.57c0-.78-.66-1.44-1.5-1.44s-1.44.66-1.44,1.44c0,.84.6,1.5,1.44,1.5s1.5-.66,1.5-1.5Z"/>
  <polyline class="cls-2" points="88.1 99.35 88.1 92.63 13.88 92.63 13.88 72.35"/>
  <polyline class="cls-2" points="155.6 72.35 155.6 92.63 88.1 92.63"/>
  <polyline class="cls-2" points="101.6 18.35 155.6 18.35 155.6 38.63"/>
  <text class="cls-6" transform="translate(129.38 8.39)"><tspan x="0" y="0">-</tspan></text>
</svg>